<?xml version="1.0" standalone="no"?>
<!DOCTYPE svg PUBLIC "-//W3C//DTD SVG 1.1//EN" "http://www.w3.org/Graphics/SVG/1.1/DTD/svg11.dtd">
<svg xmlns="http://www.w3.org/2000/svg">
<defs >
<font id="Unbounded" horiz-adv-x="759" ><font-face
    font-family="Unbounded ExtraLight"
    units-per-em="1000"
    panose-1="0 0 0 0 0 0 0 0 0 0"
    ascent="995"
    descent="-245"
    alphabetic="0" />
<glyph unicode=" " horiz-adv-x="286" />
<glyph unicode="!" horiz-adv-x="236" d="M91 750H145L137 190H99L91 750ZM118 -6Q98 -6 84 8T70 42Q70 62 84 76T118 90Q138 90 152 76T166 42Q166 22 152 8T118 -6Z" />
<glyph unicode="&quot;" horiz-adv-x="343" d="M229 547L223 750H275L269 547H229ZM74 547L68 750H120L114 547H74Z" />
<glyph unicode="#" horiz-adv-x="799" d="M259 750H309L221 0H171L259 750ZM579 750H629L541 0H491L579 750ZM78 507H746V460H78V507ZM54 288H722V241H54V288Z" />
<glyph unicode="$" horiz-adv-x="727" d="M377 -12Q279 -12 205 20T88 110T40 242H96Q106 150 179 95T377 39Q500 39 562 84T624 195Q624 236 605 267T536 319T396 352L308 363Q190 378 126 424T61 555Q61 612 96 659T198 734T357 762Q450 762 517 733T623 651T664
531H609Q601 609 538 660T356 711Q235 711 176 666T117 555Q117 518 136 490T199 443T322 414L410 403Q509 391 568 364T654 294T680 195Q680 137 645 90T542 16T377 -12ZM386 832V-82H336V832H386Z" />
<glyph unicode="%" horiz-adv-x="1128" d="M253 328Q187 328 137 355T59 431T30 542Q30 606 58 654T137 729T253 756Q319 756 369 729T447 654T475 542Q475 479 447 431T369 355T253 328ZM253 374Q331 374 377 420T424 542Q424 619 378 665T253 711Q174 711 128
665T81 542Q81 466 127 420T253 374ZM878 -7Q812 -7 762 20T683 96T655 207Q655 271 683 319T761 394T878 421Q944 421 994 394T1072 319T1100 207Q1100 144 1072 96T994 20T878 -7ZM878 39Q956 39 1002 85T1049 207Q1049 284 1003 330T878 376Q799 376 753 330T706
207Q706 131 752 85T878 39ZM741 750H795L390 0H336L741 750Z" />
<glyph unicode="&amp;" horiz-adv-x="814" d="M633 559H577Q568 628 516 670T372 712Q321 712 280 698T214 655T190 584Q190 555 210 520T280 442L812 0H732L235 413Q176 463 155 503T133 584Q133 638 164 678T250 740T375 762Q453 762 509 736T597 665T633 559ZM701
380H765L606 158Q569 106 524 68T425 9T303 -12Q221 -12 163 17T75 95T44 200Q44 257 72 302T154 379T289 430L313 404Q211 377 157 325T102 203Q102 160 124 123T191 62T300 39Q387 39 449 76T560 181L701 380Z" />
<glyph unicode="&apos;" horiz-adv-x="190" d="M68 750H122L115 546H75L68 750Z" />
<glyph unicode="(" horiz-adv-x="273" d="M189 750H241Q172 647 140 544T107 329Q107 220 139 117T241 -92H189Q119 13 85 116T51 329Q51 439 85 542T189 750Z" />
<glyph unicode=")" horiz-adv-x="273" d="M84 750Q154 645 188 542T222 329Q222 220 188 117T84 -92H32Q101 13 133 116T166 329Q166 440 134 543T32 750H84Z" />
<glyph unicode="*" horiz-adv-x="510" d="M231 762H279L276 581L447 644L462 599L288 542L406 394L367 366L255 518L143 366L104 394L222 542L48 599L63 644L234 581L231 762Z" />
<glyph unicode="+" horiz-adv-x="620" d="M285 74V634H335V74H285ZM30 329V379H590V329H30Z" />
<glyph unicode="," horiz-adv-x="202" d="M38 -127L101 14L103 -4Q90 -4 79 2T62 19T55 43Q55 56 61 66T79 83T103 90Q117 90 128 83T145 65T151 38Q151 22 146 6T126 -40L81 -127H38Z" />
<glyph unicode="-" horiz-adv-x="318" d="M57 380H261V328H57V380Z" />
<glyph unicode="." horiz-adv-x="220" d="M110 -6Q97 -6 86 0T69 18T62 42Q62 56 68 66T86 83T110 90Q124 90 134 84T151 67T158 42Q158 29 152 18T135 1T110 -6Z" />
<glyph unicode="/" horiz-adv-x="379" d="M305 777H354L74 -27H25L305 777Z" />
<glyph unicode="0" horiz-adv-x="860" d="M431 -12Q313 -12 230 36T102 172T58 375Q58 491 102 578T229 713T431 762Q548 762 631 714T758 578T802 375Q802 259 758 172T631 36T431 -12ZM430 38Q578 38 661 127T744 375Q744 534 661 623T430 712Q282 712 199 623T116
375Q116 216 199 127T430 38Z" />
<glyph unicode="1" horiz-adv-x="416" d="M315 750V0H259V743L305 705L1 651V699L271 750H315Z" />
<glyph unicode="2" horiz-adv-x="744" d="M50 504Q56 581 99 639T214 729T378 762Q467 762 534 734T638 654T676 533Q676 480 651 434T568 338T408 223L111 31L104 50H702V0H48V47L364 254Q456 315 512 360T593 446T618 533Q618 588 588 628T504 690T378 712Q293
712 234 685T144 611T106 504H50Z" />
<glyph unicode="3" horiz-adv-x="768" d="M67 531Q75 598 117 650T230 732T398 762Q489 762 554 738T654 669T690 564Q690 511 659 470T570 404T431 380V397Q516 400 578 378T674 313T708 214Q708 147 671 96T562 17T387 -12Q286 -12 211 18T93 103T44 231H100Q111
140 185 89T387 38Q511 38 580 84T650 215Q650 262 626 295T551 347T419 365H276V414H419Q527 414 579 456T632 559Q632 635 567 673T396 712Q281 712 209 664T123 531H67Z" />
<glyph unicode="4" horiz-adv-x="739" d="M566 750V0H510V731H546L78 205V227H721V177H23V220L495 750H566Z" />
<glyph unicode="5" horiz-adv-x="739" d="M127 750H635V700H152L175 724L133 361L109 360Q136 397 179 427T277 475T397 494Q496 494 562 460T662 368T696 241Q696 167 656 110T544 20T377 -12Q278 -12 207 17T94 98T38 213H94Q113 134 186 86T377 38Q456 38 514
63T605 134T638 241Q638 302 608 347T524 418T397 444Q331 444 277 425T182 375T116 310H77L127 750Z" />
<glyph unicode="6" horiz-adv-x="791" d="M419 762Q499 762 562 738T665 671T718 571H662Q640 634 579 673T419 712Q320 712 252 671T150 553T115 375Q115 274 150 198T254 80T420 38Q500 38 558 63T649 133T681 240Q681 300 652 342T570 406T450 429Q335 429
253 372T108 222L79 246Q119 316 173 368T297 450T450 479Q535 479 600 451T702 369T739 240Q739 165 699 108T587 20T420 -12Q308 -12 227 37T102 173T58 375Q58 490 100 577T224 713T419 762Z" />
<glyph unicode="7" horiz-adv-x="646" d="M135 0L564 715L563 700H-3V750H619V702L196 0H135Z" />
<glyph unicode="8" horiz-adv-x="812" d="M406 762Q555 762 639 711T723 567Q723 479 642 429T415 378V400Q579 406 668 354T757 204Q757 103 665 46T406 -12Q240 -12 148 45T55 204Q55 302 144 354T397 400V378Q253 378 171 428T89 567Q89 659 173 710T406 762ZM406
37Q545 37 623 81T701 204Q701 285 626 325T406 365Q262 365 187 324T111 204Q111 126 189 82T406 37ZM406 414Q484 414 543 432T634 484T667 567Q667 635 598 674T406 713Q284 713 215 674T145 567Q145 518 178 484T269 432T406 414Z" />
<glyph unicode="9" horiz-adv-x="791" d="M372 -12Q293 -12 230 12T126 79T73 179H129Q151 116 213 77T372 38Q472 38 539 80T641 197T676 375Q676 477 641 552T537 670T371 712Q292 712 233 687T142 617T110 510Q110 451 139 409T221 344T341 321Q456 321 539
378T683 528L712 504Q673 434 618 382T494 300T341 271Q257 271 192 299T89 381T52 510Q52 586 92 642T205 730T371 762Q484 762 565 713T689 577T733 375Q733 261 691 174T568 37T372 -12Z" />
<glyph unicode=":" horiz-adv-x="240" d="M120 -6Q100 -6 86 8T72 42Q72 62 86 76T120 90Q140 90 154 76T168 42Q168 22 154 8T120 -6ZM120 400Q100 400 86 414T72 448Q72 468 86 482T120 496Q140 496 154 482T168 448Q168 428 154 414T120 400Z" />
<glyph unicode=";" horiz-adv-x="266" d="M137 400Q117 400 103 414T89 448Q89 468 103 482T137 496Q157 496 171 482T185 448Q185 428 171 414T137 400ZM72 -127L135 14L137 -4Q117 -4 103 10T89 43Q89 63 103 76T138 90Q158 90 171 75T185 38Q185 22 180 6T160
-40L115 -127H72Z" />
<glyph unicode="&lt;" horiz-adv-x="620" d="M589 543L72 350V364L589 172V118L29 331V383L589 596V543Z" />
<glyph unicode="=" horiz-adv-x="620" d="M30 494H590V444H30V494ZM30 264H590V214H30V264Z" />
<glyph unicode="&gt;" horiz-adv-x="620" d="M31 543V596L591 383V331L31 118V172L548 364V350L31 543Z" />
<glyph unicode="?" horiz-adv-x="601" d="M263 237Q263 285 287 314T357 373L432 420Q469 443 493 476T518 546Q518 623 461 668T304 713Q206 713 145 666T75 535H20Q30 641 105 701T304 762Q429 762 500 705T572 548Q572 502 543 458T460 381L383 334Q349 313
330 293T310 238V190H267Q265 202 264 213T263 237ZM287 -6Q267 -6 253 8T239 42Q239 62 253 76T287 90Q307 90 321 76T335 42Q335 22 321 8T287 -6Z" />
<glyph unicode="@" horiz-adv-x="985" d="M691 332Q667 238 607 182T466 126Q409 126 364 152T293 224T267 332Q267 392 292 438T363 511T466 537Q522 537 567 511T644 438T691 332ZM321 332Q321 261 364 217T472 172Q537 172 587 216T665 332Q637 403 587 447T472
491Q429 491 395 471T341 415T321 332ZM943 385Q943 309 914 253T833 166T710 135H688L656 285L671 332L654 378L678 528H730L703 332L739 145L713 170Q767 170 807 196T870 271T893 384Q893 480 845 552T712 664T512 704Q389 704 296 656T150 521T98 318Q98 210
149 129T294 2T509 -44Q563 -44 618 -35T725 -9T817 33V-18Q774 -40 722 -56T615 -81T507 -90Q370 -90 266 -39T104 104T46 318Q46 415 79 494T175 631T322 719T512 750Q641 750 738 705T889 577T943 385Z" />
<glyph unicode="A" horiz-adv-x="842" d="M151 200V250H683V200H151ZM449 750L828 0H765L397 736H446L77 0H14L393 750H449Z" />
<glyph unicode="B" horiz-adv-x="812" d="M501 377L510 396Q602 396 657 369T738 297T764 199Q764 140 736 95T652 25T517 0H71L131 385L71 750H501Q605 750 659 702T714 569Q714 526 693 484T626 413T501 377ZM130 25L109 50H523Q609 50 657 88T706 199Q706 277
649 318T478 360H154V410H481Q556 410 606 450T656 569Q656 626 616 663T496 700H109L130 725L186 385L130 25Z" />
<glyph unicode="C" horiz-adv-x="892" d="M847 280Q837 194 786 128T651 25T461 -12Q339 -12 247 37T104 173T53 375Q53 490 104 577T247 713T461 762Q567 762 650 725T785 623T847 470H789Q777 543 733 597T619 680T459 710Q354 710 276 669T154 552T111 375Q111
274 154 199T275 82T459 40Q549 40 619 69T733 153T789 280H847Z" />
<glyph unicode="D" horiz-adv-x="865" d="M400 750Q523 750 616 703T761 571T813 375Q813 264 761 180T616 48T400 0H97V750H400ZM153 4L107 49H400Q505 49 585 90T710 205T755 375Q755 472 710 545T585 659T400 701H107L153 746V4Z" />
<glyph unicode="E" horiz-adv-x="736" d="M655 400V350H156V400H655ZM188 375L126 5L90 50H680V0H70L133 375L70 750H675V700H90L126 744L188 375Z" />
<glyph unicode="F" horiz-adv-x="708" d="M123 400H656V350H123V400ZM671 750V700H108L153 745V0H97V750H671Z" />
<glyph unicode="G" horiz-adv-x="920" d="M832 328Q832 255 805 193T729 85T611 14T461 -12Q370 -12 295 16T166 95T82 218T52 375Q52 461 81 532T166 654T296 734T463 762Q568 762 651 725T785 624T844 479H786Q774 548 731 600T620 681T460 710Q354 710 276
669T154 552T110 375Q110 274 153 199T276 82T461 40Q565 40 642 80T761 189T803 345L832 328ZM508 302V352H854V0H806L803 325L825 302H508Z" />
<glyph unicode="H" horiz-adv-x="880" d="M97 750H153V0H97V750ZM727 750H783V0H727V750ZM123 400H767V350H123V400Z" />
<glyph unicode="I" horiz-adv-x="250" d="M97 750H153V0H97V750Z" />
<glyph unicode="J" horiz-adv-x="750" d="M32 349H87V308Q87 184 149 112T347 40Q482 40 544 110T606 308V750H662V308Q662 195 622 125T511 21T347 -12Q254 -12 183 21T72 124T32 308V349Z" />
<glyph unicode="K" horiz-adv-x="796" d="M97 0V750H153V56L128 62L709 750H775L144 0H97ZM453 397L486 452L787 0H721L453 397Z" />
<glyph unicode="L" horiz-adv-x="710" d="M153 750V25L128 50H697V0H97V750H153Z" />
<glyph unicode="M" horiz-adv-x="1114" d="M1017 750V0H963V745H995L586 0H528L119 745H151V0H97V750H179L583 7H532L935 750H1017Z" />
<glyph unicode="N" horiz-adv-x="899" d="M787 14H748V750H802V0H729L112 736H151V0H97V750H170L787 14Z" />
<glyph unicode="O" horiz-adv-x="930" d="M465 -12Q343 -12 250 37T104 173T52 376Q52 490 104 577T249 713T466 762Q588 762 681 713T826 577T878 376Q878 261 826 174T681 37T465 -12ZM465 40Q573 40 653 81T776 198T820 376Q820 477 777 552T653 668T465 710Q357
710 278 669T154 552T110 375Q110 274 154 199T277 82T465 40Z" />
<glyph unicode="P" horiz-adv-x="741" d="M469 750Q542 750 596 724T682 650T713 540Q713 478 682 431T597 357T469 330H121V380H470Q554 380 604 423T655 540Q655 613 605 656T470 700H128L153 725V0H97V750H469Z" />
<glyph unicode="Q" horiz-adv-x="930" d="M422 258H494L833 -66H761L422 258ZM465 -12Q343 -12 250 37T104 173T52 375Q52 490 104 577T249 713T465 762Q588 762 681 713T826 577T878 375Q878 261 826 174T681 37T465 -12ZM465 40Q573 40 653 81T776 198T820 375Q820
477 777 552T653 668T465 710Q357 710 278 669T154 552T110 375Q110 274 154 199T277 82T465 40Z" />
<glyph unicode="R" horiz-adv-x="765" d="M136 380H474Q557 380 607 423T657 540Q657 613 607 656T474 700H128L153 725V0H97V750H469Q542 750 596 724T682 650T713 540Q713 478 682 431T597 357T469 330H136V380ZM320 351H396L725 0H649L320 351Z" />
<glyph unicode="S" horiz-adv-x="768" d="M43 242H99Q107 181 145 135T247 64T393 39Q517 39 591 84T665 209Q665 267 617 299T450 344L323 358Q184 373 126 422T67 548Q67 614 106 662T214 736T374 762Q468 762 540 733T655 652T702 531H646Q640 586 604 626T509
688T373 711Q259 711 191 668T123 548Q123 488 171 456T333 411L454 397Q550 386 609 364T694 305T721 211Q721 141 680 91T565 15T392 -12Q294 -12 217 20T94 109T43 242Z" />
<glyph unicode="T" horiz-adv-x="750" d="M347 720H403V0H347V720ZM13 750H737V700H13V750Z" />
<glyph unicode="U" horiz-adv-x="844" d="M143 308Q143 227 177 167T275 73T422 40Q507 40 569 73T666 166T701 308V750H757V308Q757 213 715 141T597 29T422 -12Q323 -12 248 28T130 141T87 308V750H143V308Z" />
<glyph unicode="V" horiz-adv-x="838" d="M437 18H402L760 750H823L448 0H390L15 750H77L437 18Z" />
<glyph unicode="W" horiz-adv-x="1286" d="M965 11H930L1203 750H1261L980 0H913L624 734H662L373 0H306L25 750H83L356 11H322L610 750H676L965 11Z" />
<glyph unicode="X" horiz-adv-x="716" d="M384 379V405L716 0H646L347 367H370L70 0H0L331 402V382L29 750H96L371 416H346L620 750H687L384 379Z" />
<glyph unicode="Y" horiz-adv-x="820" d="M382 0V351H438V0H382ZM25 750H92L436 327H385L726 750H793L427 298H393L25 750Z" />
<glyph unicode="Z" horiz-adv-x="731" d="M33 0V50L655 736L670 700H38V750H694V700L73 14L57 50H697V0H33Z" />
<glyph unicode="[" horiz-adv-x="326" d="M304 750V704H118L143 729V-71L118 -46H304V-92H91V750H304Z" />
<glyph unicode="\" horiz-adv-x="379" d="M74 777L354 -27H305L25 777H74Z" />
<glyph unicode="]" horiz-adv-x="326" d="M22 750H235V-92H22V-46H208L183 -71V729L208 704H22V750Z" />
<glyph unicode="^" horiz-adv-x="620" d="M498 375L290 713H330L121 375H59L287 750H332L560 375H498Z" />
<glyph unicode="_" horiz-adv-x="482" d="M-4 -30H486V-72H-4V-30Z" />
<glyph unicode="`" horiz-adv-x="258" d="M101 782L218 627H159L40 782H101Z" />
<glyph unicode="a" horiz-adv-x="746" d="M623 0L605 215L629 280L605 345L623 560H677L654 280L677 0H623ZM654 280Q630 193 583 127T472 25T329 -12Q247 -12 183 25T82 128T45 280Q45 367 82 432T183 535T329 572Q407 572 471 535T583 433T654 280ZM101 280Q101
209 130 155T211 70T329 39Q395 39 450 69T548 154T620 280Q591 352 548 406T450 490T329 521Q263 521 212 491T131 406T101 280Z" />
<glyph unicode="b" horiz-adv-x="751" d="M80 770H134V336L121 315V250L134 215V0H80V770ZM97 280Q121 367 168 432T280 535T422 572Q504 572 568 535T669 433T706 280Q706 194 669 128T568 25T422 -12Q345 -12 280 24T168 127T97 280ZM650 280Q650 352 621 406T540
490T422 521Q356 521 301 491T203 406T131 280Q160 209 203 155T301 70T422 39Q488 39 539 69T620 154T650 280Z" />
<glyph unicode="c" horiz-adv-x="689" d="M651 205Q639 141 597 92T492 16T351 -12Q261 -12 192 25T84 128T45 280Q45 367 84 432T192 535T351 572Q428 572 491 545T597 469T651 355H593Q576 431 510 476T351 521Q275 521 219 491T132 407T101 280Q101 207 132
153T219 69T351 39Q445 39 511 84T593 205H651Z" />
<glyph unicode="d" horiz-adv-x="746" d="M623 0L605 215L629 280L607 345L644 770H697L654 280L677 0H623ZM654 280Q630 193 583 127T472 25T329 -12Q247 -12 183 25T82 128T45 280Q45 367 82 432T183 535T329 572Q407 572 471 535T583 433T654 280ZM101 280Q101
209 130 155T211 70T329 39Q395 39 450 69T548 154T620 280Q591 352 548 406T450 490T329 521Q263 521 212 491T131 406T101 280Z" />
<glyph unicode="e" horiz-adv-x="682" d="M366 -12Q271 -12 199 25T86 128T45 280Q45 367 83 432T190 535T348 572Q435 572 501 534T604 429T641 272H82V320H628L585 290Q582 360 552 412T470 492T348 521Q273 521 218 491T132 407T101 280Q101 207 134 153T226
69T366 39Q440 39 505 65T624 134V83Q572 39 502 14T366 -12Z" />
<glyph unicode="f" horiz-adv-x="484" d="M362 733Q282 733 238 695T193 567V0H139V553Q139 616 160 668T228 751T356 782Q398 782 429 774T487 755V702Q458 719 428 726T362 733ZM13 481V530H479V481H13Z" />
<glyph unicode="g" horiz-adv-x="745" d="M614 134V237L618 249V326L614 346V560H668V149Q668 37 626 -35T511 -142T349 -177Q278 -177 217 -157T102 -92V-39Q162 -88 224 -107T346 -126Q477 -126 545 -55T614 134ZM315 28Q240 28 179 62T82 157T46 300Q46 382
82 443T179 538T315 572Q370 572 419 555T508 509T577 444T622 371T638 300Q638 258 614 211T545 122T443 54T315 28ZM324 79Q409 79 482 130T617 300Q556 419 483 470T324 521Q252 521 203 492T128 414T102 300Q102 237 127 187T202 108T324 79Z" />
<glyph unicode="h" horiz-adv-x="689" d="M80 770H134V0H80V770ZM374 572Q452 572 506 541T588 451T617 306V0H563V295Q563 408 512 465T362 523Q294 523 243 492T163 406T134 277L106 304Q111 385 146 445T240 538T374 572Z" />
<glyph unicode="i" horiz-adv-x="214" d="M80 560L107 556L134 560V0H80V560ZM107 655Q86 655 72 669T57 704Q57 724 71 738T107 753Q128 753 142 739T157 704Q157 684 143 670T107 655Z" />
<glyph unicode="j" horiz-adv-x="214" d="M80 560L107 556L134 560V-165H80V560ZM107 655Q86 655 72 669T57 704Q57 724 71 738T107 753Q128 753 142 739T157 704Q157 684 143 670T107 655Z" />
<glyph unicode="k" horiz-adv-x="627" d="M134 56L118 62L536 560H602L131 0H80V770H134V56ZM359 281L387 337L622 0H554L359 281Z" />
<glyph unicode="l" horiz-adv-x="214" d="M80 770H134V0H80V770Z" />
<glyph unicode="m" horiz-adv-x="1099" d="M55 560H109L139 381V0H85V389L55 560ZM360 572Q431 572 481 541T557 451T583 306V0H529V295Q529 408 483 465T348 523Q285 523 238 492T165 406T139 277L111 304Q116 385 148 445T235 538T360 572ZM804 572Q875 572
925 541T1001 451T1027 306V0H973V295Q973 408 927 465T792 523Q729 523 682 492T609 406T583 277L555 304Q560 385 592 445T679 538T804 572Z" />
<glyph unicode="n" horiz-adv-x="695" d="M55 560H109L139 381V0H85V389L55 560ZM380 572Q458 572 512 541T594 451T623 306V0H569V295Q569 408 518 465T368 523Q299 523 248 492T168 406T139 277L111 304Q116 385 151 445T245 538T380 572Z" />
<glyph unicode="o" horiz-adv-x="736" d="M368 -12Q272 -12 199 25T85 128T44 280Q44 367 85 432T199 535T368 572Q464 572 537 535T651 433T692 280Q692 194 651 128T537 25T368 -12ZM368 39Q450 39 510 69T603 153T636 280Q636 353 603 407T510 491T368 521Q287
521 227 491T133 407T100 280Q100 207 133 153T226 69T368 39Z" />
<glyph unicode="p" horiz-adv-x="753" d="M80 560H134V330L130 315V247L134 224V-165H80V560ZM99 280Q123 367 170 432T282 535T424 572Q506 572 570 535T671 433T708 280Q708 194 671 128T570 25T424 -12Q347 -12 282 24T170 127T99 280ZM652 280Q652 352 623
406T542 490T424 521Q358 521 303 491T205 406T133 280Q162 209 205 155T303 70T424 39Q490 39 541 69T622 154T652 280Z" />
<glyph unicode="q" horiz-adv-x="753" d="M673 560V-165H619V224L623 247V315L619 330V560H673ZM654 280Q630 193 583 127T472 25T329 -12Q247 -12 183 25T82 128T45 280Q45 367 82 432T183 535T329 572Q407 572 471 535T583 433T654 280ZM101 280Q101 209 130
155T211 70T329 39Q395 39 450 69T548 154T620 280Q591 352 548 406T450 490T329 521Q263 521 212 491T131 406T101 280Z" />
<glyph unicode="r" horiz-adv-x="462" d="M55 560H109L139 381V0H85V391L55 560ZM451 560V507Q435 513 410 516T361 520Q296 520 246 490T167 404T139 277L117 312Q117 370 135 417T186 499T265 553T366 572Q389 572 413 569T451 560Z" />
<glyph unicode="s" horiz-adv-x="636" d="M593 157Q593 107 560 69T466 10T327 -12Q245 -12 181 13T79 84T38 190H93Q99 145 130 111T213 57T327 37Q421 37 479 70T537 157Q537 201 500 222T365 254L259 266Q187 274 142 292T77 340T56 411Q56 462 87 498T174
553T303 572Q383 572 445 548T545 482T585 384H530Q525 425 495 456T415 505T301 523Q210 523 161 495T112 414Q112 372 146 350T263 317L368 305Q452 296 501 279T572 232T593 157Z" />
<glyph unicode="t" horiz-adv-x="502" d="M3 511V541L129 556L149 703H183V560H469V511H183V185Q183 104 219 72T328 39Q375 39 410 51T480 88V32Q458 16 413 2T318 -12Q248 -12 207 13T147 81T129 176V511H3Z" />
<glyph unicode="u" horiz-adv-x="684" d="M310 -12Q234 -12 181 19T100 109T72 254V560H126V265Q126 153 176 95T322 37Q389 37 439 68T517 154T545 283L573 266Q568 183 534 120T442 23T310 -12ZM575 0L545 179V560H599V171L629 0H575Z" />
<glyph unicode="v" horiz-adv-x="660" d="M342 27H320L586 560H644L359 0H301L16 560H76L342 27Z" />
<glyph unicode="w" horiz-adv-x="1053" d="M778 18H745L975 560H1033L791 0H735L510 540H544L318 0H262L20 560H78L308 18H275L496 560H557L778 18Z" />
<glyph unicode="x" horiz-adv-x="578" d="M3 0L284 326L283 257L19 560H89L317 297H264L493 560H559L294 257L295 326L575 0H510L261 285H314L66 0H3Z" />
<glyph unicode="y" horiz-adv-x="672" d="M169 -177Q133 -177 105 -168T46 -139V-92Q75 -110 102 -118T167 -127Q211 -127 241 -107T293 -45L599 560H657L335 -69Q316 -105 292 -129T238 -165T169 -177ZM292 18L17 560H77L349 18H292Z" />
<glyph unicode="z" horiz-adv-x="596" d="M32 0V45L523 545L539 513H36V560H561V515L70 15L54 47H563V0H32Z" />
<glyph unicode="{" horiz-adv-x="344" d="M319 704H242Q190 704 168 675T158 594L196 439Q207 396 192 369T148 329Q177 317 192 290T196 219L158 64Q145 12 167 -17T242 -46H319V-92H239Q190 -92 156 -73T108 -17T108 69L148 224Q159 266 138 286T83 307H35V351H83Q116
351 137 371T148 434L108 589Q95 639 108 675T155 730T239 750H319V704Z" />
<glyph unicode="|" horiz-adv-x="251" d="M97 750H154V-98H97V750Z" />
<glyph unicode="}" horiz-adv-x="344" d="M25 704V750H105Q155 750 189 731T236 675T236 589L196 434Q186 392 207 372T261 351H309V307H261Q228 307 207 287T196 224L236 69Q249 20 236 -16T189 -72T105 -92H25V-46H102Q155 -46 177 -17T186 64L148 219Q138 263
153 290T196 329Q168 341 153 368T148 439L186 594Q199 646 177 675T102 704H25Z" />
<glyph unicode="~" horiz-adv-x="620" d="M30 364Q108 394 191 394Q233 394 271 387T349 372T429 364Q512 364 590 394V344Q512 314 429 314Q388 314 349 321T272 336T191 344Q108 344 30 314V364Z" />
<glyph unicode="&#xa0;" horiz-adv-x="286" />
<glyph unicode="&#xa1;" horiz-adv-x="222" d="M138 -155H84L92 405H130L138 -155ZM111 601Q131 601 145 587T159 553Q159 533 145 519T111 505Q91 505 77 519T63 553Q63 573 77 587T111 601Z" />
<glyph unicode="&#xa2;" horiz-adv-x="721" d="M336 642H386V-82H336V642ZM667 205Q655 141 614 92T509 16T369 -12Q279 -12 211 25T104 128T65 280Q65 367 103 432T210 535T369 572Q446 572 509 545T613 469T667 355H609Q593 430 528 475T369 521Q294 521 239
491T152 407T121 280Q121 207 152 153T238 69T369 39Q461 39 527 84T609 205H667Z" />
<glyph unicode="&#xa3;" horiz-adv-x="728" d="M45 379H579V331H45V379ZM144 34L134 49H688V0H42V43Q152 71 205 116T259 211Q259 244 245 270T209 321T167 377T131 446T116 540Q116 606 151 656T250 734T395 762Q476 762 538 737T638 666T678 560H618Q606 629
546 670T396 711Q294 711 233 665T172 540Q172 494 186 459T222 395T264 339T300 284T315 220Q315 181 296 147T238 84T144 34Z" />
<glyph unicode="&#xa4;" horiz-adv-x="664" d="M332 161Q257 161 203 188T121 262T92 369Q92 429 120 476T203 550T332 577Q408 577 461 550T543 476T572 369Q572 309 544 262T462 188T332 161ZM332 211Q424 211 472 255T520 369Q520 438 472 482T332 527Q241
527 193 483T144 369Q144 300 192 256T332 211ZM96 597L197 508L170 470L63 561L96 597ZM568 597L601 561L494 470L467 508L568 597ZM96 141L63 177L170 268L197 230L96 141ZM568 141L467 230L494 268L601 177L568 141Z" />
<glyph unicode="&#xa5;" horiz-adv-x="757" d="M81 365H341L379 335L418 365H677V315H81V365ZM81 236H677V186H81V236ZM351 0V350H407V0H351ZM30 750H96L407 326H351L660 750H726L396 297H362L30 750Z" />
<glyph unicode="&#xa6;" horiz-adv-x="251" d="M97 210H154V-98H97V210ZM154 442H97V750H154V442Z" />
<glyph unicode="&#xa7;" horiz-adv-x="767" d="M381 762Q476 762 541 733T641 656T679 555H623Q618 597 590 632T510 689T381 711Q267 711 215 676T163 594Q163 551 197 527T317 475L522 411Q588 391 628 368T688 316T707 244Q707 197 679 167T603 116L579 147Q616
164 633 186T651 239Q651 283 616 309T499 361L294 425Q229 446 188 467T127 517T107 591Q107 640 139 678T232 739T381 762ZM387 -139Q293 -139 228 -110T128 -33T89 68H145Q151 26 178 -9T258 -66T387 -88Q501 -88 553 -53T605 29Q605 72 571 96T451 148L246
212Q148 243 105 280T61 379Q61 426 89 456T165 507L189 476Q152 460 135 438T117 384Q117 341 152 315T269 262L474 198Q540 178 581 157T641 106T661 32Q661 -17 629 -55T536 -116T387 -139Z" />
<glyph unicode="&#xa8;" horiz-adv-x="462" d="M82 655Q61 655 47 669T32 704Q32 724 46 738T82 753Q103 753 117 739T132 704Q132 684 118 670T82 655ZM380 655Q359 655 345 669T330 704Q330 724 344 738T380 753Q401 753 415 739T430 704Q430 684 416 670T380 655Z" />
<glyph unicode="&#xa9;" horiz-adv-x="929" d="M465 -12Q383 -12 311 16T184 97T98 220T67 375Q67 460 98 530T183 653T310 733T465 762Q547 762 619 734T745 653T831 531T862 375Q862 291 831 220T746 97T619 17T465 -12ZM465 36Q537 36 599 60T709 130T783 238T810
375Q810 450 784 512T710 619T600 689T465 714Q393 714 330 690T220 620T146 512T119 375Q119 300 146 238T220 131T330 61T465 36ZM709 320Q703 264 671 222T587 155T468 131Q393 131 336 162T247 248T215 376Q215 448 247 503T336 589T468 620Q534 620 586 596T670
530T709 431H653Q643 495 593 532T467 570Q378 570 325 517T272 375Q272 287 325 234T467 180Q543 180 593 218T653 320H709Z" />
<glyph unicode="&#xaa;" horiz-adv-x="608" d="M484 307L470 475L489 527L470 580L484 747H534L515 527L534 307H484ZM509 527Q491 460 456 408T371 327T263 297Q201 297 152 326T75 407T47 527Q47 596 75 647T152 728T263 757Q322 757 371 728T455 648T509 527ZM99
527Q99 473 120 433T180 369T266 346Q339 346 394 396T482 527Q450 608 395 658T266 708Q217 708 180 686T121 622T99 527Z" />
<glyph unicode="&#xab;" horiz-adv-x="531" d="M221 531H281L113 296V338L281 103H221L67 317L221 531ZM399 531H459L291 296V338L459 103H399L245 317L399 531Z" />
<glyph unicode="&#xac;" horiz-adv-x="620" d="M539 224V461L561 434H27V484H587V224H539Z" />
<glyph unicode="&#xad;" horiz-adv-x="318" d="M57 380H261V328H57V380Z" />
<glyph unicode="&#xae;" horiz-adv-x="726" d="M363 173Q299 173 245 195T150 256T87 350T65 467Q65 530 87 584T149 677T244 739T363 761Q428 761 482 739T576 678T639 584T661 467Q661 404 639 350T577 257T482 195T363 173ZM363 215Q435 215 491 248T580 338T613
467Q613 540 581 596T492 686T363 719Q291 719 235 686T146 597T113 467Q113 395 145 338T234 248T363 215ZM235 644H282V291H235V644ZM394 437H269V475H391Q425 475 445 493T465 540Q465 570 445 587T391 605H269V644H394Q447 644 480 615T513 540Q513 494 480
466T394 437ZM327 456H382L514 291H454L327 456Z" />
<glyph unicode="&#xaf;" horiz-adv-x="467" d="M40 681V729H427V681H40Z" />
<glyph unicode="&#xb0;" horiz-adv-x="394" d="M198 527Q159 527 130 541T86 582T70 642Q70 677 85 702T130 742T197 757Q236 757 264 743T308 703T324 642Q324 608 309 582T265 542T198 527ZM197 569Q237 569 258 588T280 642Q280 677 259 696T197 715Q157 715
136 696T114 642Q114 608 135 589T197 569Z" />
<glyph unicode="&#xb1;" horiz-adv-x="620" d="M285 194V624H335V194H285ZM30 384V434H590V384H30ZM30 129H590V79H30V129Z" />
<glyph unicode="&#xb2;" horiz-adv-x="534" d="M61 730Q65 771 91 801T163 849T264 867Q328 867 371 850T435 802T457 732Q457 701 444 670T389 602T264 517L115 431L82 452H476V409H62V448L222 541Q273 571 314 600T380 662T405 730Q405 771 370 797T264 824Q201
824 159 799T112 730H61Z" />
<glyph unicode="&#xb3;" horiz-adv-x="531" d="M55 710Q63 783 125 824T279 866Q374 866 421 830T469 745Q469 697 427 666T298 635V648Q366 649 406 633T463 591T481 535Q481 477 428 439T270 400Q203 400 152 421T72 480T40 564H90Q98 506 144 475T270 443Q342
443 385 466T429 541Q429 573 403 596T300 619H201V659H300Q346 659 371 671T407 702T418 740Q418 778 385 800T279 823Q204 823 159 793T105 710H55Z" />
<glyph unicode="&#xb4;" horiz-adv-x="258" d="M157 782H218L99 627H40L157 782Z" />
<glyph unicode="&#xb6;" horiz-adv-x="730" d="M219 750H459V0H403V409L448 364H219Q162 364 118 388T50 456T25 557Q25 614 49 657T118 725T219 750ZM576 0V750H632V0H576Z" />
<glyph unicode="&#xb7;" horiz-adv-x="240" d="M120 322Q107 322 96 328T79 346T72 370Q72 384 78 394T96 411T120 418Q134 418 144 412T161 395T168 370Q168 357 162 346T145 329T120 322Z" />
<glyph unicode="&#xb8;" horiz-adv-x="360" d="M148 4H196L144 -75L129 -73Q147 -59 166 -53T217 -47Q263 -47 291 -68T320 -125Q320 -164 284 -188T189 -212Q136 -212 95 -190T40 -132H92Q104 -151 129 -160T189 -170Q230 -170 249 -157T268 -125Q268 -106 251
-96T201 -86Q176 -86 159 -90T131 -101H82L148 4Z" />
<glyph unicode="&#xb9;" horiz-adv-x="439" d="M270 859V429H221V839L261 821L67 774V821L229 859H270ZM63 452H407V409H63V452Z" />
<glyph unicode="&#xba;" horiz-adv-x="588" d="M293 297Q220 297 164 326T77 407T45 527Q45 596 76 647T164 728T293 757Q367 757 423 728T510 648T542 527Q542 459 511 407T423 326T293 297ZM294 346Q383 346 436 394T490 527Q490 612 437 660T294 709Q204 709
151 661T97 527Q97 443 150 395T294 346Z" />
<glyph unicode="&#xbb;" horiz-adv-x="531" d="M310 531L464 317L310 103H250L418 338V296L250 531H310ZM132 531L286 317L132 103H72L240 338V296L72 531H132Z" />
<glyph unicode="&#xbc;" horiz-adv-x="1008" d="M254 750V320H205V730L245 712L51 665V712L213 750H254ZM47 343H391V300H47V343ZM707 750H761L356 0H302L707 750ZM898 450V0H850V431L882 429L610 134L603 159H988V117H563V148L841 450H898Z" />
<glyph unicode="&#xbd;" horiz-adv-x="1095" d="M262 750V320H213V730L253 712L59 665V712L221 750H262ZM55 343H399V300H55V343ZM701 750H755L350 0H296L701 750ZM633 321Q637 362 663 392T735 440T836 458Q900 458 943 441T1007 393T1029 323Q1029 292 1016
261T961 193T836 108L687 22L654 43H1048V0H634V39L794 132Q845 162 886 191T952 253T977 321Q977 362 942 388T836 415Q773 415 731 390T684 321H633Z" />
<glyph unicode="&#xbe;" horiz-adv-x="1074" d="M58 602Q66 675 128 716T282 758Q377 758 424 722T472 637Q472 589 430 558T301 527V540Q369 541 409 525T466 483T484 427Q484 369 431 331T273 292Q206 292 155 313T75 372T43 456H93Q101 398 147 367T273 335Q345
335 388 358T432 433Q432 465 406 488T303 511H204V551H303Q349 551 374 563T410 594T421 632Q421 670 388 692T282 715Q207 715 162 685T108 602H58ZM775 750H829L424 0H370L775 750ZM962 450V0H914V431L946 429L674 134L667 159H1052V117H627V148L905 450H962Z"
/>
<glyph unicode="&#xbf;" horiz-adv-x="596" d="M335 358Q335 310 312 281T241 222L166 175Q129 152 105 120T80 49Q80 -28 137 -73T294 -118Q392 -118 453 -70T523 60H578Q568 -46 494 -106T294 -167Q169 -167 98 -110T26 47Q26 93 56 137T138 214L215 261Q249
282 268 302T288 357V405H331Q333 393 334 382T335 358ZM311 601Q331 601 345 587T359 553Q359 533 345 519T311 505Q291 505 277 519T263 553Q263 573 277 587T311 601Z" />
<glyph unicode="&#xc0;" horiz-adv-x="842" d="M151 200V250H683V200H151ZM449 750L828 0H765L397 736H446L77 0H14L393 750H449ZM321 952L466 817H401L247 952H321Z" />
<glyph unicode="&#xc1;" horiz-adv-x="842" d="M151 200V250H683V200H151ZM449 750L828 0H765L397 736H446L77 0H14L393 750H449ZM508 952H582L428 817H363L508 952Z" />
<glyph unicode="&#xc2;" horiz-adv-x="842" d="M151 200V250H683V200H151ZM449 750L828 0H765L397 736H446L77 0H14L393 750H449ZM387 952H455L598 817H538L413 920H429L304 817H244L387 952Z" />
<glyph unicode="&#xc3;" horiz-adv-x="842" d="M151 200V250H683V200H151ZM449 750L828 0H765L397 736H446L77 0H14L393 750H449ZM219 825Q223 877 251 909T324 941Q350 941 376 931T428 907T476 884T518 873Q542 873 557 891T577 941H623Q619 889 591 857T518
825Q492 825 466 835T414 859T366 882T324 893Q300 893 285 875T265 825H219Z" />
<glyph unicode="&#xc4;" horiz-adv-x="842" d="M151 200V250H683V200H151ZM449 750L828 0H765L397 736H446L77 0H14L393 750H449ZM271 845Q250 845 236 859T221 894Q221 914 235 928T271 943Q292 943 306 929T321 894Q321 874 307 860T271 845ZM571 845Q550 845
536 859T521 894Q521 914 535 928T571 943Q592 943 606 929T621 894Q621 874 607 860T571 845Z" />
<glyph unicode="&#xc5;" horiz-adv-x="842" d="M151 200V250H683V200H151ZM449 750L828 0H765L397 736H446L77 0H14L393 750H449ZM421 807Q363 807 329 833T294 902Q294 945 328 971T421 997Q479 997 513 971T548 902Q548 859 514 833T421 807ZM421 849Q461 849
482 863T504 902Q504 928 483 941T421 955Q381 955 360 942T338 902Q338 877 359 863T421 849Z" />
<glyph unicode="&#xc6;" horiz-adv-x="1241" d="M641 350L783 50H1227V0H747L393 745H433L79 0H16L374 750H1151V700H474L617 400H1131V350H641ZM143 200V250H665V200H143Z" />
<glyph unicode="&#xc7;" horiz-adv-x="891" d="M1102 280Q1092 194 1041 128T906 25T716 -12Q594 -12 502 37T359 173T308 375Q308 490 359 577T502 713T716 762Q822 762 905 725T1040 623T1102 470H1044Q1032 543 988 597T874 680T714 710Q609 710 531 669T409
552T366 375Q366 274 409 199T530 82T714 40Q804 40 874 69T988 153T1044 280H1102ZM435 4H484L432 -75L416 -73Q434 -59 453 -53T504 -47Q551 -47 579 -68T608 -125Q608 -164 572 -188T476 -212Q422 -212 381 -190T325 -132H378Q392 -150 416 -159T476 -169Q517
-169 535 -157T554 -125Q554 -107 537 -97T488 -87Q463 -87 446 -91T418 -101H369L435 4Z" />
<glyph unicode="&#xc8;" horiz-adv-x="736" d="M655 400V350H156V400H655ZM188 375L126 5L90 50H680V0H70L133 375L70 750H675V700H90L126 744L188 375ZM274 952L419 817H354L200 952H274Z" />
<glyph unicode="&#xc9;" horiz-adv-x="736" d="M655 400V350H156V400H655ZM188 375L126 5L90 50H680V0H70L133 375L70 750H675V700H90L126 744L188 375ZM461 952H535L381 817H316L461 952Z" />
<glyph unicode="&#xca;" horiz-adv-x="736" d="M655 400V350H156V400H655ZM188 375L126 5L90 50H680V0H70L133 375L70 750H675V700H90L126 744L188 375ZM340 952H408L551 817H491L366 920H382L257 817H197L340 952Z" />
<glyph unicode="&#xcb;" horiz-adv-x="736" d="M655 400V350H156V400H655ZM188 375L126 5L90 50H680V0H70L133 375L70 750H675V700H90L126 744L188 375ZM224 845Q203 845 189 859T174 894Q174 914 188 928T224 943Q245 943 259 929T274 894Q274 874 260 860T224
845ZM524 845Q503 845 489 859T474 894Q474 914 488 928T524 943Q545 943 559 929T574 894Q574 874 560 860T524 845Z" />
<glyph unicode="&#xcc;" horiz-adv-x="250" d="M97 750H153V0H97V750ZM25 952L170 817H105L-49 952H25Z" />
<glyph unicode="&#xcd;" horiz-adv-x="250" d="M97 750H153V0H97V750ZM212 952H286L132 817H67L212 952Z" />
<glyph unicode="&#xce;" horiz-adv-x="250" d="M91 952H159L274 817H214L118 918H132L36 817H-24L91 952ZM97 750H153V0H97V750Z" />
<glyph unicode="&#xcf;" horiz-adv-x="250" d="M42 845Q21 845 7 859T-8 894Q-8 914 6 928T42 943Q63 943 77 929T92 894Q92 874 78 860T42 845ZM208 845Q187 845 173 859T158 894Q158 914 172 928T208 943Q229 943 243 929T258 894Q258 874 244 860T208 845ZM97
750H153V0H97V750Z" />
<glyph unicode="&#xd0;" horiz-adv-x="902" d="M20 401H435V351H20V401ZM437 750Q560 750 653 703T798 571T850 375Q850 264 798 180T653 48T437 0H134V750H437ZM190 4L144 49H437Q542 49 622 90T747 205T792 375Q792 472 747 545T622 659T437 701H144L190 746V4Z" />
<glyph unicode="&#xd1;" horiz-adv-x="899" d="M787 14H748V750H802V0H729L112 736H151V0H97V750H170L787 14ZM260 825Q264 877 292 909T365 941Q391 941 417 931T469 907T517 884T559 873Q583 873 598 891T618 941H664Q660 889 632 857T559 825Q533 825 507 835T455
859T407 882T365 893Q341 893 326 875T306 825H260Z" />
<glyph unicode="&#xd2;" horiz-adv-x="930" d="M465 -12Q343 -12 250 37T104 173T52 375Q52 490 104 577T249 713T465 762Q588 762 681 713T826 577T878 375Q878 261 826 174T681 37T465 -12ZM465 40Q573 40 653 81T776 198T820 375Q820 477 777 552T653 668T465
710Q357 710 278 669T154 552T110 375Q110 274 154 199T277 82T465 40ZM365 952L510 817H445L291 952H365Z" />
<glyph unicode="&#xd3;" horiz-adv-x="930" d="M465 -12Q343 -12 250 37T104 173T52 376Q52 490 104 577T249 713T466 762Q588 762 681 713T826 577T878 376Q878 261 826 174T681 37T465 -12ZM465 40Q573 40 653 81T776 198T820 376Q820 477 777 552T653 668T465
710Q357 710 278 669T154 552T110 375Q110 274 154 199T277 82T465 40ZM552 952H626L472 817H407L552 952Z" />
<glyph unicode="&#xd4;" horiz-adv-x="930" d="M465 -12Q343 -12 250 37T104 173T52 376Q52 490 104 577T249 713T466 762Q588 762 681 713T826 577T878 376Q878 261 826 174T681 37T465 -12ZM465 40Q573 40 653 81T776 198T820 376Q820 477 777 552T653 668T465
710Q357 710 278 669T154 552T110 375Q110 274 154 199T277 82T465 40ZM431 952H499L642 817H582L457 920H473L348 817H288L431 952Z" />
<glyph unicode="&#xd5;" horiz-adv-x="930" d="M465 -12Q343 -12 250 37T104 173T52 376Q52 490 104 577T249 713T466 762Q588 762 681 713T826 577T878 376Q878 261 826 174T681 37T465 -12ZM465 40Q573 40 653 81T776 198T820 376Q820 477 777 552T653 668T465
710Q357 710 278 669T154 552T110 375Q110 274 154 199T277 82T465 40ZM263 825Q267 877 295 909T368 941Q394 941 420 931T472 907T520 884T562 873Q586 873 601 891T621 941H667Q663 889 635 857T562 825Q536 825 510 835T458 859T410 882T368 893Q344 893 329
875T309 825H263Z" />
<glyph unicode="&#xd6;" horiz-adv-x="930" d="M465 -12Q343 -12 250 37T104 173T52 376Q52 490 104 577T249 713T466 762Q588 762 681 713T826 577T878 376Q878 261 826 174T681 37T465 -12ZM465 40Q573 40 653 81T776 198T820 376Q820 477 777 552T653 668T465
710Q357 710 278 669T154 552T110 375Q110 274 154 199T277 82T465 40ZM315 845Q294 845 280 859T265 894Q265 914 279 928T315 943Q336 943 350 929T365 894Q365 874 351 860T315 845ZM615 845Q594 845 580 859T565 894Q565 914 579 928T615 943Q636 943 650 929T665
894Q665 874 651 860T615 845Z" />
<glyph unicode="&#xd7;" horiz-adv-x="620" d="M95 167L491 563L526 527L130 131L95 167ZM95 527L130 563L526 167L491 131L95 527Z" />
<glyph unicode="&#xd8;" horiz-adv-x="930" d="M790 760H858L140 -10H72L790 760ZM465 -12Q343 -12 250 37T104 173T52 375Q52 490 104 577T249 713T465 762Q557 762 632 734T763 655T848 532T878 375Q878 261 826 174T681 37T465 -12ZM465 40Q573 40 653 81T776
198T820 375Q820 477 777 552T653 668T465 710Q357 710 278 669T154 552T110 375Q110 274 154 199T277 82T465 40Z" />
<glyph unicode="&#xd9;" horiz-adv-x="844" d="M143 308Q143 227 177 167T275 73T422 40Q507 40 569 73T666 166T701 308V750H757V308Q757 213 715 141T597 29T422 -12Q323 -12 248 28T130 141T87 308V750H143V308ZM322 952L467 817H402L248 952H322Z" />
<glyph unicode="&#xda;" horiz-adv-x="844" d="M143 308Q143 227 177 167T275 73T422 40Q507 40 569 73T666 166T701 308V750H757V308Q757 213 715 141T597 29T422 -12Q323 -12 248 28T130 141T87 308V750H143V308ZM509 952H583L429 817H364L509 952Z" />
<glyph unicode="&#xdb;" horiz-adv-x="844" d="M143 308Q143 227 177 167T275 73T422 40Q507 40 569 73T666 166T701 308V750H757V308Q757 213 715 141T597 29T422 -12Q323 -12 248 28T130 141T87 308V750H143V308ZM388 952H456L599 817H539L414 920H430L305 817H245L388
952Z" />
<glyph unicode="&#xdc;" horiz-adv-x="844" d="M143 308Q143 227 177 167T275 73T422 40Q507 40 569 73T666 166T701 308V750H757V308Q757 213 715 141T597 29T422 -12Q323 -12 248 28T130 141T87 308V750H143V308ZM272 845Q251 845 237 859T222 894Q222 914 236
928T272 943Q293 943 307 929T322 894Q322 874 308 860T272 845ZM572 845Q551 845 537 859T522 894Q522 914 536 928T572 943Q593 943 607 929T622 894Q622 874 608 860T572 845Z" />
<glyph unicode="&#xdd;" horiz-adv-x="820" d="M382 0V351H438V0H382ZM25 750H92L436 327H385L726 750H793L427 298H393L25 750ZM496 952H570L416 817H351L496 952Z" />
<glyph unicode="&#xde;" horiz-adv-x="756" d="M97 750H153V0H97V750ZM469 170H136V220H470Q554 220 604 263T655 380Q655 453 605 496T470 540H137V590H469Q542 590 596 564T682 490T713 380Q713 318 682 271T597 197T469 170Z" />
<glyph unicode="&#xdf;" horiz-adv-x="763" d="M80 0V523Q80 601 114 659T213 749T365 782Q441 782 498 759T588 692T621 590Q621 514 565 465T411 403L423 418Q566 418 644 363T722 207Q722 146 693 97T605 18T456 -12Q405 -12 350 -1T238 32V85Q297 60 351 50T451
39Q563 39 614 86T666 206Q666 258 637 299T543 363T372 387H316V435H363Q461 435 513 477T566 583Q566 651 511 691T365 731Q259 731 197 675T134 526V0H80Z" />
<glyph unicode="&#xe0;" horiz-adv-x="746" d="M623 0L605 215L629 280L605 345L623 560H677L654 280L677 0H623ZM654 280Q630 193 583 127T472 25T329 -12Q247 -12 183 25T82 128T45 280Q45 367 82 432T183 535T329 572Q407 572 471 535T583 433T654 280ZM101
280Q101 209 130 155T211 70T329 39Q395 39 450 69T548 154T620 280Q591 352 548 406T450 490T329 521Q263 521 212 491T131 406T101 280ZM288 782L405 627H346L227 782H288Z" />
<glyph unicode="&#xe1;" horiz-adv-x="746" d="M623 0L605 215L629 280L605 345L623 560H677L654 280L677 0H623ZM654 280Q630 193 583 127T472 25T329 -12Q247 -12 183 25T82 128T45 280Q45 367 82 432T183 535T329 572Q407 572 471 535T583 433T654 280ZM101
280Q101 209 130 155T211 70T329 39Q395 39 450 69T548 154T620 280Q591 352 548 406T450 490T329 521Q263 521 212 491T131 406T101 280ZM432 782H493L374 627H315L432 782Z" />
<glyph unicode="&#xe2;" horiz-adv-x="746" d="M623 0L605 215L629 280L605 345L623 560H677L654 280L677 0H623ZM654 280Q630 193 583 127T472 25T329 -12Q247 -12 183 25T82 128T45 280Q45 367 82 432T183 535T329 572Q407 572 471 535T583 433T654 280ZM101
280Q101 209 130 155T211 70T329 39Q395 39 450 69T548 154T620 280Q591 352 548 406T450 490T329 521Q263 521 212 491T131 406T101 280ZM326 782H394L537 627H477L352 750H368L243 627H183L326 782Z" />
<glyph unicode="&#xe3;" horiz-adv-x="746" d="M623 0L605 215L629 280L605 345L623 560H677L654 280L677 0H623ZM654 280Q630 193 583 127T472 25T329 -12Q247 -12 183 25T82 128T45 280Q45 367 82 432T183 535T329 572Q407 572 471 535T583 433T654 280ZM101
280Q101 209 130 155T211 70T329 39Q395 39 450 69T548 154T620 280Q591 352 548 406T450 490T329 521Q263 521 212 491T131 406T101 280ZM168 655Q172 707 200 739T273 771Q297 771 320 761T366 737T409 714T447 703Q471 703 486 721T506 771H552Q548 719 520
687T447 655Q423 655 400 665T354 689T311 712T273 723Q249 723 234 705T214 655H168Z" />
<glyph unicode="&#xe4;" horiz-adv-x="746" d="M623 0L605 215L629 280L605 345L623 560H677L654 280L677 0H623ZM654 280Q630 193 583 127T472 25T329 -12Q247 -12 183 25T82 128T45 280Q45 367 82 432T183 535T329 572Q407 572 471 535T583 433T654 280ZM101
280Q101 209 130 155T211 70T329 39Q395 39 450 69T548 154T620 280Q591 352 548 406T450 490T329 521Q263 521 212 491T131 406T101 280ZM211 655Q190 655 176 669T161 704Q161 724 175 738T211 753Q232 753 246 739T261 704Q261 684 247 670T211 655ZM509 655Q488
655 474 669T459 704Q459 724 473 738T509 753Q530 753 544 739T559 704Q559 684 545 670T509 655Z" />
<glyph unicode="&#xe5;" horiz-adv-x="746" d="M623 0L605 215L629 280L605 345L623 560H677L654 280L677 0H623ZM654 280Q630 193 583 127T472 25T329 -12Q247 -12 183 25T82 128T45 280Q45 367 82 432T183 535T329 572Q407 572 471 535T583 433T654 280ZM101
280Q101 209 130 155T211 70T329 39Q395 39 450 69T548 154T620 280Q591 352 548 406T450 490T329 521Q263 521 212 491T131 406T101 280ZM360 617Q302 617 268 646T233 722Q233 769 267 798T360 827Q418 827 452 798T487 722Q487 675 453 646T360 617ZM360 659Q400
659 421 675T443 722Q443 752 422 768T360 785Q320 785 299 769T277 722Q277 692 298 676T360 659Z" />
<glyph unicode="&#xe6;" horiz-adv-x="1242" d="M928 -12Q839 -12 770 25T663 128T624 280Q624 373 663 438T768 537T911 572Q1002 572 1066 531T1165 420T1200 260H649V308H1187L1144 278Q1141 352 1112 406T1032 491T911 521Q839 521 785 491T699 407T668 280Q668
207 700 153T792 69T928 39Q1005 39 1070 67T1183 134V83Q1159 62 1121 40T1033 3T928 -12ZM609 0L605 215L629 280L605 345L609 560H654L658 280L654 0H609ZM654 280Q630 193 583 127T472 25T329 -12Q247 -12 183 25T82 128T45 280Q45 367 82 432T183 535T329
572Q407 572 471 535T583 433T654 280ZM101 280Q101 209 130 155T211 70T329 39Q395 39 450 69T548 154T620 280Q591 352 548 406T450 490T329 521Q263 521 212 491T131 406T101 280Z" />
<glyph unicode="&#xe7;" horiz-adv-x="689" d="M651 205Q639 141 597 92T492 16T351 -12Q261 -12 192 25T84 128T45 280Q45 367 84 432T192 535T351 572Q428 572 491 545T597 469T651 355H593Q576 431 510 476T351 521Q275 521 219 491T132 407T101 280Q101 207
132 153T219 69T351 39Q445 39 511 84T593 205H651ZM330 4H378L326 -75L311 -73Q329 -59 348 -53T399 -47Q445 -47 473 -68T502 -125Q502 -164 466 -188T371 -212Q318 -212 277 -190T222 -132H274Q286 -151 311 -160T371 -170Q412 -170 431 -157T450 -125Q450 -106
433 -96T383 -86Q358 -86 341 -90T313 -101H264L330 4Z" />
<glyph unicode="&#xe8;" horiz-adv-x="682" d="M366 -12Q271 -12 199 25T86 128T45 280Q45 367 83 432T190 535T348 572Q435 572 501 534T604 429T641 272H82V320H628L585 290Q582 360 552 412T470 492T348 521Q273 521 218 491T132 407T101 280Q101 207 134 153T226
69T366 39Q440 39 505 65T624 134V83Q572 39 502 14T366 -12ZM271 782L388 627H329L210 782H271Z" />
<glyph unicode="&#xe9;" horiz-adv-x="682" d="M366 -12Q271 -12 199 25T86 128T45 280Q45 367 83 432T190 535T348 572Q435 572 501 534T604 429T641 272H82V320H628L585 290Q582 360 552 412T470 492T348 521Q273 521 218 491T132 407T101 280Q101 207 134 153T226
69T366 39Q440 39 505 65T624 134V83Q572 39 502 14T366 -12ZM415 782H476L357 627H298L415 782Z" />
<glyph unicode="&#xea;" horiz-adv-x="682" d="M366 -12Q271 -12 199 25T86 128T45 280Q45 367 83 432T190 535T348 572Q435 572 501 534T604 429T641 272H82V320H628L585 290Q582 360 552 412T470 492T348 521Q273 521 218 491T132 407T101 280Q101 207 134 153T226
69T366 39Q440 39 505 65T624 134V83Q572 39 502 14T366 -12ZM309 782H377L520 627H460L335 750H351L226 627H166L309 782Z" />
<glyph unicode="&#xeb;" horiz-adv-x="682" d="M366 -12Q271 -12 199 25T86 128T45 280Q45 367 83 432T190 535T348 572Q435 572 501 534T604 429T641 272H82V320H628L585 290Q582 360 552 412T470 492T348 521Q273 521 218 491T132 407T101 280Q101 207 134 153T226
69T366 39Q440 39 505 65T624 134V83Q572 39 502 14T366 -12ZM194 655Q173 655 159 669T144 704Q144 724 158 738T194 753Q215 753 229 739T244 704Q244 684 230 670T194 655ZM492 655Q471 655 457 669T442 704Q442 724 456 738T492 753Q513 753 527 739T542 704Q542
684 528 670T492 655Z" />
<glyph unicode="&#xec;" horiz-adv-x="214" d="M80 560L107 556L134 560V0H80V560ZM35 782L152 627H93L-26 782H35Z" />
<glyph unicode="&#xed;" horiz-adv-x="214" d="M80 560L107 556L134 560V0H80V560ZM179 782H240L121 627H62L179 782Z" />
<glyph unicode="&#xee;" horiz-adv-x="214" d="M73 782H141L256 627H196L100 748H114L18 627H-42L73 782ZM80 560L107 556L134 560V0H80V560Z" />
<glyph unicode="&#xef;" horiz-adv-x="214" d="M24 655Q3 655 -11 669T-26 704Q-26 724 -12 738T24 753Q45 753 59 739T74 704Q74 684 60 670T24 655ZM190 655Q169 655 155 669T140 704Q140 724 154 738T190 753Q211 753 225 739T240 704Q240 684 226 670T190
655ZM80 560L107 556L134 560V0H80V560Z" />
<glyph unicode="&#xf0;" horiz-adv-x="742" d="M376 -12Q275 -12 201 21T86 113T45 249Q45 327 86 386T200 479T369 512Q452 512 525 481T659 367L646 366Q616 444 572 511T461 641T302 772L363 782Q473 702 547 619T658 451T696 280Q696 204 662 137T558 29T376
-12ZM369 39Q451 39 511 65T604 138T637 250Q637 313 604 360T511 434T369 461Q288 461 228 435T134 362T101 250Q101 186 134 139T227 65T369 39ZM259 579V625L665 705V659L259 579Z" />
<glyph unicode="&#xf1;" horiz-adv-x="695" d="M55 560H109L139 381V0H85V389L55 560ZM380 572Q458 572 512 541T594 451T623 306V0H569V295Q569 408 518 465T368 523Q299 523 248 492T168 406T139 277L111 304Q116 385 151 445T245 538T380 572ZM162 655Q166
707 194 739T267 771Q291 771 314 761T360 737T403 714T441 703Q465 703 480 721T500 771H546Q542 719 514 687T441 655Q417 655 394 665T348 689T305 712T267 723Q243 723 228 705T208 655H162Z" />
<glyph unicode="&#xf2;" horiz-adv-x="736" d="M368 -12Q272 -12 199 25T85 128T44 280Q44 367 85 432T199 535T368 572Q464 572 537 535T651 433T692 280Q692 194 651 128T537 25T368 -12ZM368 39Q450 39 510 69T603 153T636 280Q636 353 603 407T510 491T368
521Q287 521 227 491T133 407T100 280Q100 207 133 153T226 69T368 39ZM296 782L413 627H354L235 782H296Z" />
<glyph unicode="&#xf3;" horiz-adv-x="736" d="M368 -12Q272 -12 199 25T85 128T44 280Q44 367 85 432T199 535T368 572Q464 572 537 535T651 433T692 280Q692 194 651 128T537 25T368 -12ZM368 39Q450 39 510 69T603 153T636 280Q636 353 603 407T510 491T368
521Q287 521 227 491T133 407T100 280Q100 207 133 153T226 69T368 39ZM440 782H501L382 627H323L440 782Z" />
<glyph unicode="&#xf4;" horiz-adv-x="736" d="M368 -12Q272 -12 199 25T85 128T44 280Q44 367 85 432T199 535T368 572Q464 572 537 535T651 433T692 280Q692 194 651 128T537 25T368 -12ZM368 39Q450 39 510 69T603 153T636 280Q636 353 603 407T510 491T368
521Q287 521 227 491T133 407T100 280Q100 207 133 153T226 69T368 39ZM334 782H402L545 627H485L360 750H376L251 627H191L334 782Z" />
<glyph unicode="&#xf5;" horiz-adv-x="736" d="M368 -12Q272 -12 199 25T85 128T44 280Q44 367 85 432T199 535T368 572Q464 572 537 535T651 433T692 280Q692 194 651 128T537 25T368 -12ZM368 39Q450 39 510 69T603 153T636 280Q636 353 603 407T510 491T368
521Q287 521 227 491T133 407T100 280Q100 207 133 153T226 69T368 39ZM176 655Q180 707 208 739T281 771Q305 771 328 761T374 737T417 714T455 703Q479 703 494 721T514 771H560Q556 719 528 687T455 655Q431 655 408 665T362 689T319 712T281 723Q257 723 242
705T222 655H176Z" />
<glyph unicode="&#xf6;" horiz-adv-x="736" d="M368 -12Q272 -12 199 25T85 128T44 280Q44 367 85 432T199 535T368 572Q464 572 537 535T651 433T692 280Q692 194 651 128T537 25T368 -12ZM368 39Q450 39 510 69T603 153T636 280Q636 353 603 407T510 491T368
521Q287 521 227 491T133 407T100 280Q100 207 133 153T226 69T368 39ZM219 655Q198 655 184 669T169 704Q169 724 183 738T219 753Q240 753 254 739T269 704Q269 684 255 670T219 655ZM517 655Q496 655 482 669T467 704Q467 724 481 738T517 753Q538 753 552 739T567
704Q567 684 553 670T517 655Z" />
<glyph unicode="&#xf7;" horiz-adv-x="620" d="M300 481Q276 481 260 497T244 537Q244 561 260 577T300 593Q324 593 340 577T356 537Q356 513 340 497T300 481ZM300 115Q276 115 260 131T244 171Q244 195 260 211T300 227Q324 227 340 211T356 171Q356 147 340
131T300 115ZM30 379H590V329H30V379Z" />
<glyph unicode="&#xf8;" horiz-adv-x="736" d="M617 590H682L119 -30H54L617 590ZM368 -12Q272 -12 199 25T85 128T44 280Q44 367 85 432T199 535T368 572Q464 572 537 535T651 433T692 280Q692 194 651 128T537 25T368 -12ZM368 39Q450 39 510 69T603 153T636
280Q636 353 603 407T510 491T368 521Q287 521 227 491T133 407T100 280Q100 207 133 153T226 69T368 39Z" />
<glyph unicode="&#xf9;" horiz-adv-x="684" d="M310 -12Q234 -12 181 19T100 109T72 254V560H126V265Q126 153 176 95T322 37Q389 37 439 68T517 154T545 283L573 266Q568 183 534 120T442 23T310 -12ZM575 0L545 179V560H599V171L629 0H575ZM264 782L381 627H322L203
782H264Z" />
<glyph unicode="&#xfa;" horiz-adv-x="684" d="M310 -12Q234 -12 181 19T100 109T72 254V560H126V265Q126 153 176 95T322 37Q389 37 439 68T517 154T545 283L573 266Q568 183 534 120T442 23T310 -12ZM575 0L545 179V560H599V171L629 0H575ZM408 782H469L350
627H291L408 782Z" />
<glyph unicode="&#xfb;" horiz-adv-x="684" d="M310 -12Q234 -12 181 19T100 109T72 254V560H126V265Q126 153 176 95T322 37Q389 37 439 68T517 154T545 283L573 266Q568 183 534 120T442 23T310 -12ZM575 0L545 179V560H599V171L629 0H575ZM302 782H370L513
627H453L328 750H344L219 627H159L302 782Z" />
<glyph unicode="&#xfc;" horiz-adv-x="684" d="M310 -12Q234 -12 181 19T100 109T72 254V560H126V265Q126 153 176 95T322 37Q389 37 439 68T517 154T545 283L573 266Q568 183 534 120T442 23T310 -12ZM575 0L545 179V560H599V171L629 0H575ZM187 655Q166 655
152 669T137 704Q137 724 151 738T187 753Q208 753 222 739T237 704Q237 684 223 670T187 655ZM485 655Q464 655 450 669T435 704Q435 724 449 738T485 753Q506 753 520 739T535 704Q535 684 521 670T485 655Z" />
<glyph unicode="&#xfd;" horiz-adv-x="672" d="M169 -177Q133 -177 105 -168T46 -139V-92Q75 -110 102 -118T167 -127Q211 -127 241 -107T293 -45L599 560H657L335 -69Q316 -105 292 -129T238 -165T169 -177ZM292 18L17 560H77L349 18H292ZM409 782H470L351 627H292L409
782Z" />
<glyph unicode="&#xfe;" horiz-adv-x="753" d="M80 770H134V330L130 315V247L134 224V-165H80V770ZM99 280Q123 367 170 432T282 535T424 572Q506 572 570 535T671 433T708 280Q708 194 671 128T570 25T424 -12Q347 -12 282 24T170 127T99 280ZM652 280Q652 352
623 406T542 490T424 521Q358 521 303 491T205 406T133 280Q162 209 205 155T303 70T424 39Q490 39 541 69T622 154T652 280Z" />
<glyph unicode="&#xff;" horiz-adv-x="672" d="M169 -177Q133 -177 105 -168T46 -139V-92Q75 -110 102 -118T167 -127Q211 -127 241 -107T293 -45L599 560H657L335 -69Q316 -105 292 -129T238 -165T169 -177ZM292 18L17 560H77L349 18H292ZM188 655Q167 655 153
669T138 704Q138 724 152 738T188 753Q209 753 223 739T238 704Q238 684 224 670T188 655ZM486 655Q465 655 451 669T436 704Q436 724 450 738T486 753Q507 753 521 739T536 704Q536 684 522 670T486 655Z" />
<glyph unicode="&#x2013;" horiz-adv-x="611" d="M55 377H556V331H55V377Z" />
<glyph unicode="&#x2014;" horiz-adv-x="1102" d="M55 377H556V331H55V377ZM546 377H1047V331H546V377Z" />
<glyph unicode="&#x2018;" horiz-adv-x="212" d="M163 750L102 614L100 632Q113 632 123 626T140 609T147 586Q147 573 141 563T124 546T100 540Q87 540 76 546T59 564T53 590Q53 605 57 621T77 666L121 750H163Z" />
<glyph unicode="&#x2019;" horiz-adv-x="215" d="M60 546L121 682L123 664Q110 664 100 670T83 687T76 710Q76 723 82 733T99 750T123 756Q137 756 147 750T164 732T170 706Q170 691 166 675T146 630L102 546H60Z" />
<glyph unicode="&#x201a;" horiz-adv-x="202" d="M40 -120L101 16L103 -2Q90 -2 80 4T63 21T56 44Q56 57 62 67T79 84T103 90Q117 90 127 84T144 66T150 40Q150 25 146 9T126 -36L82 -120H40Z" />
<glyph unicode="&#x201c;" horiz-adv-x="363" d="M314 750L253 614L251 632Q264 632 274 626T291 609T298 586Q298 573 292 563T275 546T251 540Q238 540 227 546T210 564T204 590Q204 605 208 621T228 666L272 750H314ZM163 750L102 614L100 632Q113 632 123
626T140 609T147 586Q147 573 141 563T124 546T100 540Q87 540 76 546T59 564T53 590Q53 605 57 621T77 666L121 750H163Z" />
<glyph unicode="&#x201d;" horiz-adv-x="366" d="M60 546L121 682L123 664Q110 664 100 670T83 687T76 710Q76 723 82 733T99 750T123 756Q137 756 147 750T164 732T170 706Q170 691 166 675T146 630L102 546H60ZM211 546L272 682L274 664Q261 664 251 670T234
687T227 710Q227 723 233 733T250 750T274 756Q288 756 298 750T315 732T321 706Q321 691 317 675T297 630L253 546H211Z" />
<glyph unicode="&#x201e;" horiz-adv-x="352" d="M40 -120L101 16L103 -2Q90 -2 80 4T63 21T56 44Q56 57 62 67T79 84T103 90Q117 90 127 84T144 66T150 40Q150 25 146 9T126 -36L82 -120H40ZM191 -120L252 16L254 -2Q241 -2 231 4T214 21T207 44Q207 57 213 67T230
84T254 90Q268 90 278 84T295 66T301 40Q301 25 297 9T277 -36L233 -120H191Z" />
<glyph unicode="&#x2022;" horiz-adv-x="358" d="M179 275Q151 275 129 288T93 324T79 375Q79 403 92 425T128 461T179 475Q207 475 229 462T265 426T279 375Q279 347 266 325T230 289T179 275Z" />
<glyph unicode="&#x2039;" horiz-adv-x="353" d="M221 531H281L113 296V338L281 103H221L67 317L221 531Z" />
<glyph unicode="&#x203a;" horiz-adv-x="353" d="M132 531L286 317L132 103H72L240 338V296L72 531H132Z" />
</font>
</defs>
</svg>
