<?xml version="1.0" standalone="no"?>
<!DOCTYPE svg PUBLIC "-//W3C//DTD SVG 1.1//EN" "http://www.w3.org/Graphics/SVG/1.1/DTD/svg11.dtd">
<svg xmlns="http://www.w3.org/2000/svg">
<defs >
<font id="Unbounded" horiz-adv-x="759" ><font-face
    font-family="Unbounded Black"
    units-per-em="1000"
    panose-1="0 0 0 0 0 0 0 0 0 0"
    ascent="995"
    descent="-245"
    alphabetic="0" />
<glyph unicode=" " horiz-adv-x="236" />
<glyph unicode="!" horiz-adv-x="352" d="M43 750H309L266 290H86L43 750ZM176 -12Q115 -12 78 22T41 113Q41 169 78 203T176 238Q237 238 274 204T311 113Q311 57 274 23T176 -12Z" />
<glyph unicode="&quot;" horiz-adv-x="562" d="M344 371L293 750H535L484 371H344ZM78 371L27 750H269L218 371H78Z" />
<glyph unicode="#" horiz-adv-x="877" d="M207 750H407L319 0H119L207 750ZM557 750H757L669 0H469L557 750ZM61 594H839V424H61V594ZM37 326H815V156H37V326Z" />
<glyph unicode="$" horiz-adv-x="843" d="M430 -18Q314 -18 227 15T90 108T39 247H291Q296 211 333 191T435 170Q492 170 523 182T554 222Q554 236 546 245T517 260T464 268L345 277Q184 289 113 352T42 518Q42 600 87 655T215 739T408 768Q516 768 599 737T731
649T785 516H534Q530 543 500 561T404 580Q353 580 323 569T293 532Q293 521 300 512T325 497T377 488L511 478Q618 470 682 443T776 370T805 255Q805 173 758 112T627 16T430 -18ZM512 832V-82H329V832H512Z" />
<glyph unicode="%" horiz-adv-x="1349" d="M300 305Q217 305 154 333T56 413T21 534Q21 602 56 653T154 732T300 761Q384 761 446 733T544 653T579 534Q579 465 544 414T447 334T300 305ZM300 447Q340 447 362 469T384 533Q384 574 363 597T301 620Q260 620 239
597T217 533Q217 492 238 470T300 447ZM1047 -20Q964 -20 901 8T803 88T768 209Q768 277 803 328T901 407T1047 436Q1131 436 1193 408T1291 328T1326 209Q1326 140 1291 89T1194 9T1047 -20ZM1047 122Q1087 122 1109 144T1131 208Q1131 249 1110 272T1048 295Q1007
295 986 272T964 208Q964 167 985 145T1047 122ZM788 750H969L559 0H378L788 750Z" />
<glyph unicode="&amp;" horiz-adv-x="982" d="M790 529H538Q535 556 516 574T458 593Q435 593 421 587T399 571T392 549Q392 538 398 529T417 508L1001 0H689L225 401Q187 434 155 476T123 568Q123 627 159 672T267 742T447 768Q554 768 629 736T745 650T790 529ZM697
426H958L693 140Q639 81 587 46T476 -3T340 -18Q242 -18 172 11T63 92T25 209Q25 265 55 311T153 388T331 426L379 328Q331 320 304 298T277 244Q277 222 291 205T328 178T382 168Q447 168 488 191T557 249L697 426Z" />
<glyph unicode="&apos;" horiz-adv-x="306" d="M27 750H279L228 371H78L27 750Z" />
<glyph unicode="(" horiz-adv-x="430" d="M219 750H413Q352 632 322 526T292 317Q292 216 322 110T413 -116H219Q125 -15 78 91T30 317Q30 436 77 542T219 750Z" />
<glyph unicode=")" horiz-adv-x="430" d="M211 750Q306 649 353 543T400 317Q400 198 353 92T211 -116H17Q79 4 108 110T138 317Q138 420 109 526T17 750H211Z" />
<glyph unicode="*" horiz-adv-x="548" d="M199 770H350L341 632L469 683L515 539L382 505L469 400L347 311L274 427L201 311L79 400L166 505L33 539L79 683L208 632L199 770Z" />
<glyph unicode="+" horiz-adv-x="620" d="M220 74V634H400V74H220ZM30 264V444H590V264H30Z" />
<glyph unicode="," horiz-adv-x="330" d="M34 -155L149 86L164 -8Q126 -8 95 10T45 59T27 127Q27 165 45 195T94 244T164 262Q203 262 234 244T283 195T301 125Q301 90 283 50T223 -51L151 -155H34Z" />
<glyph unicode="-" horiz-adv-x="384" d="M51 447H333V249H51V447Z" />
<glyph unicode="." horiz-adv-x="328" d="M164 -12Q126 -12 95 6T45 55T27 125Q27 164 45 195T94 244T164 262Q203 262 234 244T283 195T301 125Q301 87 283 56T234 6T164 -12Z" />
<glyph unicode="/" horiz-adv-x="485" d="M292 777H473L193 -27H12L292 777Z" />
<glyph unicode="0" horiz-adv-x="946" d="M473 -18Q342 -18 244 31T91 168T36 375Q36 493 90 581T243 719T473 768Q604 768 702 719T855 582T910 375Q910 257 856 169T703 31T473 -18ZM474 190Q559 190 606 238T654 375Q654 464 607 512T473 560Q388 560 340 512T292
376Q292 287 340 239T474 190Z" />
<glyph unicode="1" horiz-adv-x="552" d="M488 750V0H234V656L347 551L17 493V690L300 750H488Z" />
<glyph unicode="2" horiz-adv-x="865" d="M28 472Q35 564 90 630T236 732T442 768Q551 768 632 736T758 646T803 512Q803 453 769 402T665 304T485 211L308 137L306 200H822V0H50V176L374 349Q444 386 481 410T532 453T547 496Q547 521 534 538T494 564T432 574Q382
574 351 560T303 523T284 472H28Z" />
<glyph unicode="3" horiz-adv-x="862" d="M41 500Q45 573 91 633T227 731T447 768Q556 768 637 741T763 666T808 554Q808 504 778 462T679 396T499 372V394Q601 399 673 382T785 325T824 220Q824 151 778 98T644 13T430 -18Q308 -18 217 15T76 109T22 253H278Q284
216 319 196T430 176Q492 176 527 192T562 240Q562 258 552 270T513 287T431 293H307V460H431Q501 460 525 475T550 516Q550 545 520 559T433 574Q368 574 336 555T297 500H41Z" />
<glyph unicode="4" horiz-adv-x="899" d="M755 750V0H501V635H570L207 236V313H863V128H25V308L430 750H755Z" />
<glyph unicode="5" horiz-adv-x="828" d="M122 750H736V565H196L297 602L256 363H197Q218 402 255 433T347 482T479 501Q574 501 644 471T754 386T794 258Q794 177 750 115T620 18T414 -18Q299 -18 213 15T79 106T26 234H281Q287 209 322 193T414 176Q454 176
481 186T523 214T538 259Q538 283 524 302T482 331T415 342Q383 342 357 336T311 319T277 296H52L122 750Z" />
<glyph unicode="6" horiz-adv-x="878" d="M459 768Q562 768 641 737T769 652T827 533H594Q581 557 550 572T466 588Q403 588 361 565T297 498T275 386Q275 310 298 261T364 188T467 164Q505 164 531 174T570 201T584 238Q584 262 571 278T532 303T469 311Q420
311 373 293T278 228L198 280Q228 343 274 390T386 465T537 492Q633 492 701 461T805 374T842 247Q842 171 799 111T671 17T462 -18Q318 -18 224 32T84 171T38 374Q38 488 84 577T225 717T459 768Z" />
<glyph unicode="7" horiz-adv-x="785" d="M111 0L520 620V550H16V750H758V546L412 0H111Z" />
<glyph unicode="8" horiz-adv-x="918" d="M459 768Q656 768 758 710T861 547Q861 456 775 412T534 375V394Q697 409 788 362T880 210Q880 98 773 40T459 -18Q252 -18 145 40T38 210Q38 315 129 362T384 394V375Q230 368 144 412T57 547Q57 651 159 709T459 768ZM459
175Q538 175 578 190T619 235Q619 264 579 279T459 294Q380 294 340 279T299 235Q299 206 339 191T459 175ZM459 463Q507 463 539 469T588 488T605 519Q605 546 568 560T459 575Q387 575 350 561T313 519Q313 501 329 489T378 470T459 463Z" />
<glyph unicode="9" horiz-adv-x="878" d="M419 -18Q316 -18 237 13T109 98T51 217H284Q297 193 328 178T412 162Q476 162 518 185T581 253T603 364Q603 440 580 489T514 562T411 586Q373 586 347 576T308 550T294 512Q294 488 307 472T347 448T409 439Q459 439
506 457T600 522L680 470Q651 408 604 360T492 285T341 258Q245 258 177 289T73 376T36 503Q37 579 80 639T207 733T416 768Q560 768 654 718T794 579T840 376Q841 262 794 173T654 33T419 -18Z" />
<glyph unicode=":" horiz-adv-x="350" d="M175 -12Q114 -12 77 22T40 113Q40 169 77 203T175 238Q236 238 273 204T310 113Q310 57 273 23T175 -12ZM175 310Q114 310 77 344T40 435Q40 491 77 525T175 560Q236 560 273 526T310 435Q310 379 273 345T175 310Z" />
<glyph unicode=";" horiz-adv-x="350" d="M175 310Q114 310 77 344T40 435Q40 491 77 525T175 560Q236 560 273 526T310 435Q310 379 273 345T175 310ZM45 -155L160 86L175 -12Q114 -12 77 22T40 113Q40 169 77 203T175 238Q236 238 273 204T310 113Q310 85 294
46T234 -53L162 -155H45Z" />
<glyph unicode="&lt;" horiz-adv-x="620" d="M588 459L173 324V384L588 249V59L28 254V454L588 649V459Z" />
<glyph unicode="=" horiz-adv-x="620" d="M30 574H590V394H30V574ZM30 314H590V134H30V314Z" />
<glyph unicode="&gt;" horiz-adv-x="620" d="M32 459V649L592 454V254L32 59V249L447 384V324L32 459Z" />
<glyph unicode="?" horiz-adv-x="739" d="M239 302Q239 347 265 384T356 448L434 480Q455 488 464 498T474 521Q474 547 450 561T374 575Q321 575 292 554T256 495H14Q22 624 117 696T375 768Q536 768 626 706T717 531Q717 474 687 432T593 362L505 325Q486 317
477 306T467 277V271H244Q241 280 240 288T239 302ZM353 -12Q292 -12 255 22T218 113Q218 169 255 203T353 238Q414 238 451 204T488 113Q488 57 451 23T353 -12Z" />
<glyph unicode="@" horiz-adv-x="1066" d="M627 327Q621 228 577 169T445 110Q386 110 342 137T273 213T248 327Q248 393 272 441T341 517T445 544Q505 544 544 517T603 441T627 327ZM473 327Q473 304 486 290T521 276Q544 276 567 291T595 327Q591 348 568 363T521
378Q507 378 496 372T479 354T473 327ZM1042 385Q1042 306 1005 248T899 157T736 124H615L582 263L604 327L582 389L605 530H838L807 327L844 150L766 212Q812 212 844 233T894 293T912 384Q912 463 868 520T744 608T554 639Q435 639 348 600T213 489T165 318Q165
227 212 160T345 57T550 21Q608 21 670 30T787 53T879 86V-33Q841 -50 785 -63T667 -83T545 -90Q388 -90 272 -40T92 102T28 316Q28 414 65 494T171 631T337 719T554 750Q703 750 812 705T982 578T1042 385Z" />
<glyph unicode="A" horiz-adv-x="996" d="M238 126V331H749V126H238ZM670 750L999 0H724L465 636H531L272 0H-3L326 750H670Z" />
<glyph unicode="B" horiz-adv-x="907" d="M604 364L624 410Q709 407 766 383T851 317T880 215Q880 154 853 105T769 28T629 0H40L97 385L40 750H608Q712 750 771 702T830 567Q830 518 808 475T737 403T604 364ZM292 56L194 171H547Q580 171 599 188T618 236Q618
263 600 282T545 301H249V469H507Q533 469 550 485T568 526Q568 549 552 564T507 579H195L292 694L343 385L292 56Z" />
<glyph unicode="C" horiz-adv-x="949" d="M922 325Q910 222 852 145T697 25T477 -18Q343 -18 243 31T88 168T32 375Q32 493 87 581T243 719T477 768Q601 768 697 725T851 605T922 425H663Q654 464 630 491T568 533T477 548Q419 548 378 528T314 468T292 375Q292
321 314 283T377 223T477 202Q529 202 567 215T630 256T663 325H922Z" />
<glyph unicode="D" horiz-adv-x="946" d="M458 750Q595 750 697 704T857 573T914 375Q914 262 857 178T698 47T458 0H60V750H458ZM316 115L200 230H478Q533 230 572 247T633 297T654 375Q654 421 633 453T573 502T478 520H200L316 635V115Z" />
<glyph unicode="E" horiz-adv-x="812" d="M729 464V286H164V464H729ZM341 375L295 96L197 204H766V0H40L95 375L40 750H761V546H197L295 654L341 375Z" />
<glyph unicode="F" horiz-adv-x="791" d="M186 457H734V242H186V457ZM754 750V535H200L318 650V0H60V750H754Z" />
<glyph unicode="G" horiz-adv-x="976" d="M840 324Q836 258 813 197T744 87T628 10T462 -18Q375 -18 298 7T161 81T67 204T33 375Q33 472 67 545T162 668T303 743T476 768Q606 768 698 730T847 624T922 469H663Q654 497 628 516T563 546T478 557Q420 557 378 538T314
478T291 375Q291 311 316 269T389 207T502 187Q565 187 614 201T693 246T731 324H840ZM518 224V401H928V0H749L711 287L756 224H518Z" />
<glyph unicode="H" horiz-adv-x="956" d="M60 750H318V0H60V750ZM638 750H896V0H638V750ZM206 497H739V269H206V497Z" />
<glyph unicode="I" horiz-adv-x="378" d="M60 750H318V0H60V750Z" />
<glyph unicode="J" horiz-adv-x="824" d="M13 376H265V356Q265 279 293 241T389 202Q455 202 485 237T515 334V750H773V320Q773 219 725 143T591 24T389 -18Q276 -18 192 26T61 149T15 334L13 376Z" />
<glyph unicode="K" horiz-adv-x="895" d="M60 0V750H316V201L251 256L624 750H894L294 0H60ZM420 345L610 494L904 0H612L420 345Z" />
<glyph unicode="L" horiz-adv-x="781" d="M318 750V114L202 230H760V0H60V750H318Z" />
<glyph unicode="M" horiz-adv-x="1275" d="M1215 750V0H970V653L1017 647L765 0H510L258 644L305 651V0H60V750H459L683 139H594L816 750H1215Z" />
<glyph unicode="N" horiz-adv-x="995" d="M755 188L685 171V750H935V0H612L240 578L310 595V0H60V750H393L755 188Z" />
<glyph unicode="O" horiz-adv-x="976" d="M488 -18Q351 -18 249 31T89 168T32 375Q32 493 89 581T248 719T488 768Q625 768 727 719T887 582T944 375Q944 257 887 169T728 31T488 -18ZM488 212Q549 212 593 231T660 287T684 375Q684 426 661 462T593 518T488 538Q427
538 383 519T316 463T292 375Q292 324 315 288T383 232T488 212Z" />
<glyph unicode="P" horiz-adv-x="837" d="M497 750Q599 750 671 717T782 622T820 477Q820 394 782 333T672 238T497 204H180V405H480Q518 405 539 424T560 477Q560 512 539 530T480 549H202L318 665V0H60V750H497Z" />
<glyph unicode="Q" horiz-adv-x="977" d="M336 318H641L963 -59H650L336 318ZM488 -18Q351 -18 249 31T89 168T32 375Q32 493 89 581T248 719T488 768Q625 768 727 719T887 582T944 375Q944 257 887 169T728 31T488 -18ZM488 212Q549 212 593 231T660 287T684
375Q684 426 661 462T593 518T488 538Q427 538 383 519T316 463T292 375Q292 324 315 288T383 232T488 212Z" />
<glyph unicode="R" horiz-adv-x="876" d="M238 429H490Q528 429 549 447T570 499Q570 533 549 551T490 569H202L318 685V0H60V750H530Q620 750 687 719T792 631T830 499Q830 425 793 369T688 281T530 250H238V429ZM326 351H611L860 0H565L326 351Z" />
<glyph unicode="S" horiz-adv-x="870" d="M35 247H297Q301 225 320 210T372 186T451 177Q511 177 544 189T578 228Q578 246 559 258T481 275L357 283Q188 294 113 355T38 516Q38 600 86 656T220 740T423 768Q536 768 623 737T762 648T819 515H557Q554 533 538
546T491 566T418 573Q363 573 332 562T300 526Q300 509 318 497T390 481L530 472Q640 465 708 440T807 369T839 258Q839 175 790 113T653 17T446 -18Q324 -18 232 15T89 108T35 247Z" />
<glyph unicode="T" horiz-adv-x="840" d="M291 639H549V0H291V639ZM21 750H819V520H21V750Z" />
<glyph unicode="U" horiz-adv-x="889" d="M308 344Q308 303 322 274T367 228T444 212Q492 212 522 227T566 273T580 344V750H838V330Q838 225 789 147T652 26T444 -18Q326 -18 238 25T100 147T50 330V750H308V344Z" />
<glyph unicode="V" horiz-adv-x="968" d="M540 118H434L701 750H971L631 0H337L-3 750H273L540 118Z" />
<glyph unicode="W" horiz-adv-x="1390" d="M1026 114L951 113L1109 750H1382L1171 0H839L645 609H745L551 0H219L8 750H282L440 114L365 115L560 750H830L1026 114Z" />
<glyph unicode="X" horiz-adv-x="922" d="M556 310V469L936 0H619L395 297H525L299 0H-14L369 469V310L5 750H328L530 483H400L598 750H917L556 310Z" />
<glyph unicode="Y" horiz-adv-x="957" d="M350 0V370H608V0H350ZM0 750H283L532 429H425L673 750H956L562 244L395 241L0 750Z" />
<glyph unicode="Z" horiz-adv-x="830" d="M43 0V183L492 598L686 553H46V751H784V568L336 153L170 198H787V0H43Z" />
<glyph unicode="[" horiz-adv-x="468" d="M430 750V564H177L293 680V-46L177 70H430V-116H57V750H430Z" />
<glyph unicode="\" horiz-adv-x="485" d="M193 777L473 -27H292L12 777H193Z" />
<glyph unicode="]" horiz-adv-x="468" d="M38 750H411V-116H38V70H291L175 -46V680L291 564H38V750Z" />
<glyph unicode="^" horiz-adv-x="620" d="M405 375L290 600H330L215 375H15L220 750H400L605 375H405Z" />
<glyph unicode="_" horiz-adv-x="482" d="M-44 -30H526V-198H-44V-30Z" />
<glyph unicode="`" horiz-adv-x="412" d="M264 827L392 627H160L20 827H264Z" />
<glyph unicode="a" horiz-adv-x="852" d="M555 0L526 203L555 287L526 370L555 575H819L779 288L819 0H555ZM608 287Q598 195 559 127T456 20T310 -18Q226 -18 163 20T64 127T28 287Q28 379 63 448T162 555T310 593Q392 593 455 556T559 450T608 287ZM284 287Q284
254 297 229T335 188T392 173Q425 173 456 188T510 228T543 287Q534 320 511 346T456 387T392 402Q360 402 336 387T298 346T284 287Z" />
<glyph unicode="b" horiz-adv-x="834" d="M48 770H302V428L271 365V195L302 140V0H48V770ZM227 287Q237 381 276 449T380 555T525 593Q610 593 673 555T771 448T807 287Q807 196 772 127T673 20T525 -18Q443 -18 380 20T277 126T227 287ZM551 287Q551 320 538
346T500 387T443 402Q410 402 379 387T325 346T292 287Q302 254 325 229T379 188T443 173Q475 173 499 188T537 228T551 287Z" />
<glyph unicode="c" horiz-adv-x="787" d="M766 253Q759 172 709 111T579 16T397 -18Q287 -18 203 20T72 128T25 287Q25 378 72 446T203 554T397 593Q498 593 578 559T709 465T766 322H515Q506 365 475 386T397 408Q362 408 336 395T295 354T281 287Q281 247 295
221T335 181T397 167Q443 167 474 190T515 253H766Z" />
<glyph unicode="d" horiz-adv-x="855" d="M560 0L531 214L570 285L531 381L583 770H847L783 308L824 0H560ZM608 287Q598 195 559 127T456 20T310 -18Q226 -18 163 20T64 127T28 287Q28 379 63 448T162 555T310 593Q392 593 455 556T559 450T608 287ZM284 287Q284
254 297 229T335 188T392 173Q425 173 456 188T510 228T543 287Q534 320 511 346T456 387T392 402Q360 402 336 387T298 346T284 287Z" />
<glyph unicode="e" horiz-adv-x="750" d="M399 -18Q292 -18 208 20T74 128T25 290Q25 381 72 449T202 555T386 593Q493 593 568 548T683 419T723 221H233V360H575L507 313Q503 348 489 372T451 408T396 421Q359 421 334 407T295 367T281 311Q281 263 302 231T368
181T479 164Q541 164 600 178T709 218V64Q645 24 570 3T399 -18Z" />
<glyph unicode="f" horiz-adv-x="623" d="M495 602Q432 602 412 583T392 525V0H138V515Q138 606 176 666T287 757T464 788Q508 788 544 783T623 766V584Q592 592 561 597T495 602ZM25 337V522H607V337H25Z" />
<glyph unicode="g" horiz-adv-x="836" d="M536 147V242L544 270V431L536 452V575H790V153Q790 50 739 -25T595 -142T374 -183Q292 -183 223 -162T82 -101V84Q144 39 214 18T358 -4Q444 -4 490 29T536 147ZM309 71Q227 71 163 103T63 195T26 332Q26 411 62 469T163
560T309 593Q371 593 421 574T510 524T575 458T614 388T627 329Q627 294 607 250T546 165T447 98T309 71ZM398 239Q448 239 485 263T544 332Q521 378 484 401T398 425Q363 425 337 415T296 383T281 332Q281 303 295 282T335 250T398 239Z" />
<glyph unicode="h" horiz-adv-x="807" d="M48 770H302V0H48V770ZM501 593Q585 593 644 560T734 466T766 324V0H512V288Q512 336 486 362T411 388Q377 388 353 375T315 336T302 274L227 312Q241 406 281 468T378 562T501 593Z" />
<glyph unicode="i" horiz-adv-x="350" d="M48 587L175 561L302 587V0H48V587ZM431 617Q367 617 328 648T289 733Q289 787 328 818T431 849Q496 849 534 818T573 733Q573 679 535 648T431 617Z" />
<glyph unicode="j" horiz-adv-x="350" d="M48 587L175 561L302 587V-165H48V587ZM431 617Q367 617 328 648T289 733Q289 787 328 818T431 849Q496 849 534 818T573 733Q573 679 535 648T431 617Z" />
<glyph unicode="k" horiz-adv-x="782" d="M302 197L234 219L521 575H779L272 0H48V770H302V197ZM357 278L553 403L793 0H511L357 278Z" />
<glyph unicode="l" horiz-adv-x="350" d="M48 770H302V0H48V770Z" />
<glyph unicode="m" horiz-adv-x="1244" d="M21 575H275L315 330V0H61V369L21 575ZM504 593Q585 593 642 560T729 466T759 324V0H505V288Q505 336 482 362T414 388Q383 388 361 375T327 336T315 274L240 312Q254 406 292 468T386 562T504 593ZM947 593Q1028 593
1085 560T1173 466T1203 324V0H949V288Q949 336 926 362T858 388Q827 388 805 375T771 336T759 274L684 312Q698 406 736 468T829 562T947 593Z" />
<glyph unicode="n" horiz-adv-x="820" d="M21 575H275L315 330V0H61V369L21 575ZM514 593Q598 593 657 560T747 466T779 324V0H525V288Q525 336 499 362T424 388Q390 388 366 375T328 336T315 274L240 312Q254 406 294 468T391 562T514 593Z" />
<glyph unicode="o" horiz-adv-x="810" d="M405 -18Q291 -18 206 20T73 127T25 287Q25 379 72 448T205 555T405 593Q519 593 604 555T737 448T785 287Q785 196 738 127T605 20T405 -18ZM405 167Q445 167 472 181T514 222T529 287Q529 326 515 353T473 394T405 408Q366
408 338 394T296 353T281 288Q281 249 295 222T338 181T405 167Z" />
<glyph unicode="p" horiz-adv-x="834" d="M48 575H302V433L292 405V215L302 160V-165H48V575ZM227 287Q237 381 276 449T380 555T525 593Q610 593 673 555T771 448T807 287Q807 196 772 127T673 20T525 -18Q443 -18 380 20T277 126T227 287ZM551 287Q551 320 538
346T500 387T443 402Q410 402 379 387T325 346T292 287Q302 254 325 229T379 188T443 173Q475 173 499 188T537 228T551 287Z" />
<glyph unicode="q" horiz-adv-x="835" d="M787 575V-165H533V160L543 215V405L533 433V575H787ZM608 287Q598 195 559 127T456 20T310 -18Q226 -18 163 20T64 127T28 287Q28 379 63 448T162 555T310 593Q392 593 455 556T559 450T608 287ZM284 287Q284 254 297
229T335 188T392 173Q425 173 456 188T510 228T543 287Q534 320 511 346T456 387T392 402Q360 402 336 387T298 346T284 287Z" />
<glyph unicode="r" horiz-adv-x="585" d="M21 575H281L315 372V0H61V375L21 575ZM569 587V372Q535 378 508 380T460 383Q422 383 389 370T336 321T315 221L270 277Q280 339 295 395T337 496T403 567T503 593Q518 593 534 592T569 587Z" />
<glyph unicode="s" horiz-adv-x="786" d="M760 196Q760 124 715 77T590 6T401 -18Q290 -18 206 8T73 82T21 193H279Q286 176 303 165T347 148T415 142Q463 142 488 149T513 169Q513 184 492 190T424 200L330 206Q221 213 157 235T64 297T36 390Q36 459 79 504T201
571T383 593Q485 593 564 568T691 497T747 391H489Q484 407 469 418T430 436T372 443Q326 443 305 436T284 415Q284 400 297 394T348 386L474 378Q582 372 644 350T733 289T760 196Z" />
<glyph unicode="t" horiz-adv-x="635" d="M6 390V499L119 556L230 732H373V575H598V390H373V272Q373 217 394 195T480 172Q520 172 551 177T608 191V7Q574 -3 525 -10T421 -18Q319 -18 252 12T152 101T119 239V390H6Z" />
<glyph unicode="u" horiz-adv-x="807" d="M299 -17Q218 -17 160 16T72 110T41 251V575H295V287Q295 240 319 214T389 188Q424 188 446 200T480 238T492 301L567 263Q554 170 515 108T420 14T299 -17ZM532 0L492 245V575H746V206L786 0H532Z" />
<glyph unicode="v" horiz-adv-x="806" d="M447 123L364 124L539 575H809L548 0H258L-3 575H277L447 123Z" />
<glyph unicode="w" horiz-adv-x="1168" d="M854 147H779L918 575H1172L968 0H709L544 452H624L459 0H200L-4 575H250L389 147H314L465 575H703L854 147Z" />
<glyph unicode="x" horiz-adv-x="767" d="M-16 0L243 318V261L-1 575H277L417 399H353L492 575H769L513 258L499 343L784 0H497L347 187H415L267 0H-16Z" />
<glyph unicode="y" horiz-adv-x="818" d="M270 -183Q198 -183 144 -166T35 -108V62Q88 28 133 14T232 -1Q274 -1 305 16T357 84L552 575H822L560 8Q527 -64 480 -106T378 -165T270 -183ZM238 77L7 575H287L480 77H238Z" />
<glyph unicode="z" horiz-adv-x="723" d="M39 0V174L401 421L586 397H41V575H682V401L320 154L164 178H684V0H39Z" />
<glyph unicode="{" horiz-adv-x="514" d="M475 574H356Q343 574 338 565T337 539L358 475Q381 406 353 366T261 317Q325 310 353 269T358 159L337 95Q332 79 337 70T356 60H475V-116H233Q178 -116 142 -90T96 -20T103 72L144 180Q153 203 143 218T105 234H29V400H105Q132
400 142 415T144 454L103 562Q85 611 95 654T142 723T233 750H475V574Z" />
<glyph unicode="|" horiz-adv-x="332" d="M60 750H272V-98H60V750Z" />
<glyph unicode="}" horiz-adv-x="514" d="M39 574V750H281Q337 750 372 724T419 654T411 562L370 454Q361 431 371 416T409 400H485V234H409Q382 234 372 219T370 180L411 72Q430 23 419 -20T373 -89T281 -116H39V60H158Q172 60 177 69T177 95L156 159Q134 228
161 269T253 317Q189 325 162 365T156 475L177 539Q182 555 177 564T158 574H39Z" />
<glyph unicode="~" horiz-adv-x="620" d="M30 417Q107 457 198 457Q243 457 276 448T343 430T422 421Q513 421 590 461V291Q513 251 422 251Q377 251 344 260T277 278T198 287Q107 287 30 247V417Z" />
<glyph unicode="&#xa0;" horiz-adv-x="236" />
<glyph unicode="&#xa1;" horiz-adv-x="344" d="M305 -155H39L82 305H262L305 -155ZM172 607Q233 607 270 573T307 482Q307 426 270 392T172 357Q111 357 74 391T37 482Q37 538 74 572T172 607Z" />
<glyph unicode="&#xa2;" horiz-adv-x="810" d="M341 661H467V-87H341V661ZM764 248Q757 171 710 111T584 17T406 -17Q300 -17 219 21T92 128T46 286Q46 376 91 445T218 552T406 591Q503 591 581 558T707 465T764 325H532Q523 369 490 394T406 419Q368 419 339
404T294 360T278 286Q278 243 294 214T338 169T406 154Q454 154 488 179T532 248H764Z" />
<glyph unicode="&#xa3;" horiz-adv-x="842" d="M44 441H678V276H44V441ZM275 150L186 175H812V0H48V210Q137 220 185 239T233 300Q233 324 219 344T185 384T145 427T110 480T96 550Q96 616 139 665T260 741T442 768Q545 768 624 736T750 647T801 513H549Q543 549
517 568T449 588Q405 588 381 572T356 524Q356 501 369 484T401 452T439 419T471 380T484 327Q484 283 456 247T381 185T275 150Z" />
<glyph unicode="&#xa4;" horiz-adv-x="752" d="M376 121Q276 121 207 152T103 240T68 369Q68 443 103 498T207 585T376 617Q477 617 545 586T649 499T684 369Q684 296 649 240T546 153T376 121ZM376 291Q435 291 459 310T484 369Q484 410 460 428T376 447Q317
447 293 429T268 369Q268 329 292 310T376 291ZM110 639L241 538L134 470L33 561L110 639ZM642 639L719 551L618 470L511 538L642 639ZM110 99L33 177L134 268L241 200L110 99ZM642 99L511 200L618 268L719 177L642 99Z" />
<glyph unicode="&#xa5;" horiz-adv-x="912" d="M86 431H378L455 394L519 431H828V295H86V431ZM86 255H828V119H86V255ZM328 0V370H586V0H328ZM14 750H296L508 429H405L616 750H898L540 244L373 241L14 750Z" />
<glyph unicode="&#xa6;" horiz-adv-x="332" d="M60 254H272V-98H60V254ZM272 398H60V750H272V398Z" />
<glyph unicode="&#xa7;" horiz-adv-x="921" d="M446 768Q576 768 661 738T791 659T839 557H585Q583 573 568 586T522 608T442 617Q390 617 367 606T343 579Q343 564 357 556T402 539L641 482Q728 462 779 437T854 379T877 298Q877 233 812 190T600 147V197Q631
205 645 220T659 253Q659 280 638 294T572 319L318 383Q240 403 188 425T108 481T81 573Q81 625 119 669T238 741T446 768ZM474 -148Q344 -148 259 -118T130 -39T81 63H335Q337 48 352 34T398 12T478 3Q531 3 554 14T577 41Q577 56 563 65T518 81L279 138Q162 166
103 209T43 322Q43 387 108 430T320 473V423Q289 416 275 401T261 367Q261 340 283 326T348 301L602 237Q680 218 732 196T812 139T839 47Q839 -5 801 -49T682 -121T474 -148Z" />
<glyph unicode="&#xa8;" horiz-adv-x="648" d="M167 617Q107 617 72 646T36 728Q36 778 71 806T167 835Q227 835 262 807T298 728Q298 675 263 646T167 617ZM481 617Q421 617 386 646T350 728Q350 778 385 806T481 835Q541 835 576 807T612 728Q612 675 577 646T481 617Z" />
<glyph unicode="&#xa9;" horiz-adv-x="894" d="M447 -18Q364 -18 292 11T164 93T78 218T47 376Q47 461 78 533T164 657T291 739T447 768Q530 768 602 739T730 658T816 533T847 376Q847 290 816 218T730 93T603 11T447 -18ZM447 62Q513 62 570 84T670 149T737 248T761
375Q761 444 737 501T670 601T570 665T447 688Q381 688 324 666T224 601T157 502T133 375Q133 306 157 249T224 149T324 85T447 62ZM704 352Q697 289 663 242T574 168T447 142Q371 142 314 171T225 254T193 378Q193 449 224 502T313 584T447 614Q518 614 573 588T663
515T704 404H533Q526 436 504 452T447 469Q407 469 386 445T365 378Q365 336 386 312T447 287Q485 287 505 303T533 352H704Z" />
<glyph unicode="&#xaa;" horiz-adv-x="709" d="M442 303L419 460L442 523L419 590L442 745H665L632 524L665 303H442ZM485 523Q478 453 448 400T369 318T255 288Q189 288 140 317T63 400T35 523Q35 595 62 648T139 730T255 759Q320 759 369 730T449 647T485 523ZM251
523Q251 502 260 485T286 459T325 449Q360 449 391 470T432 523Q423 556 392 577T325 599Q303 599 287 589T261 562T251 523Z" />
<glyph unicode="&#xab;" horiz-adv-x="807" d="M180 555H437L270 283V331L437 59H180L35 307L180 555ZM517 555H774L607 283V331L774 59H517L372 307L517 555Z" />
<glyph unicode="&#xac;" horiz-adv-x="620" d="M405 166V479L520 364H25V544H585V166H405Z" />
<glyph unicode="&#xad;" horiz-adv-x="384" d="M51 447H333V249H51V447Z" />
<glyph unicode="&#xae;" horiz-adv-x="812" d="M406 122Q329 122 264 146T150 213T75 316T48 445Q48 515 74 574T149 676T263 744T406 768Q483 768 548 744T662 677T737 574T764 445Q764 375 738 316T663 214T549 146T406 122ZM406 200Q491 200 552 231T646 318T680
445Q680 517 647 572T552 659T406 690Q322 690 261 659T166 573T132 445Q132 373 165 318T260 232T406 200ZM240 624H356V271H240V624ZM436 387H327V474H426Q442 474 450 482T459 505Q459 520 451 527T426 535H327V624H436Q499 624 538 591T577 505Q577 452 538
420T436 387ZM376 436H493L591 271H458L376 436Z" />
<glyph unicode="&#xaf;" horiz-adv-x="544" d="M29 642V789H553V642H29Z" />
<glyph unicode="&#xb0;" horiz-adv-x="506" d="M253 420Q192 420 145 441T70 501T43 590Q43 640 70 678T144 738T253 760Q315 760 362 739T436 679T463 590Q463 540 436 502T362 442T253 420ZM253 516Q289 516 307 534T326 590Q326 627 308 645T253 664Q217 664
199 646T180 590Q180 553 198 535T253 516Z" />
<glyph unicode="&#xb1;" horiz-adv-x="620" d="M220 234V634H400V234H220ZM30 349V519H590V349H30ZM30 184H590V14H30V184Z" />
<glyph unicode="&#xb2;" horiz-adv-x="549" d="M33 686Q37 735 67 776T155 844T294 870Q357 870 405 852T480 799T508 719Q508 681 491 653T442 602T365 561L248 513L179 544H506V409H38V514L227 614Q264 634 285 646T316 669T325 692Q325 708 312 716T277 725Q246
725 231 714T211 686H33Z" />
<glyph unicode="&#xb3;" horiz-adv-x="580" d="M29 690Q34 769 102 819T303 870Q420 870 482 833T544 736Q544 681 494 654T343 629V647Q426 649 472 637T536 602T554 546Q554 484 494 442T298 399Q210 399 147 422T51 486T16 582H192Q196 554 221 543T284 532Q326
532 342 538T358 557Q358 570 347 574T303 578H242V684H303Q322 684 332 687T347 697T352 710Q352 721 338 728T289 736Q245 736 226 723T205 690H29Z" />
<glyph unicode="&#xb4;" horiz-adv-x="412" d="M148 827H392L252 627H20L148 827Z" />
<glyph unicode="&#xb6;" horiz-adv-x="843" d="M261 750H557V0H379V409L494 294H261Q191 294 138 323T54 403T23 522Q23 589 53 640T137 721T261 750ZM601 0V750H779V0H601Z" />
<glyph unicode="&#xb7;" horiz-adv-x="332" d="M166 229Q128 229 97 247T47 296T29 366Q29 405 47 436T96 485T166 503Q205 503 236 485T285 436T303 366Q303 328 285 297T236 247T166 229Z" />
<glyph unicode="&#xb8;" horiz-adv-x="449" d="M166 22H282L222 -69L165 -65Q190 -54 219 -47T283 -40Q354 -40 391 -66T429 -140Q429 -190 380 -223T232 -257Q147 -257 92 -227T20 -142H160Q166 -152 183 -159T232 -167Q264 -167 280 -158T296 -135Q296 -122
284 -113T242 -104Q230 -104 218 -106T195 -113H78L166 22Z" />
<glyph unicode="&#xb9;" horiz-adv-x="460" d="M339 860V479H173V830L270 720L49 694V832L206 860H339ZM43 544H439V409H43V544Z" />
<glyph unicode="&#xba;" horiz-adv-x="668" d="M334 288Q244 288 176 317T71 400T33 523Q33 594 70 647T176 729T334 759Q424 759 492 730T597 648T635 523Q635 453 598 400T492 318T334 288ZM334 443Q375 443 397 464T419 523Q419 562 397 583T334 604Q293 604
271 583T249 523Q249 486 271 465T334 443Z" />
<glyph unicode="&#xbb;" horiz-adv-x="807" d="M627 555L772 307L627 59H370L537 331V283L370 555H627ZM290 555L435 307L290 59H33L200 331V283L33 555H290Z" />
<glyph unicode="&#xbc;" horiz-adv-x="1181" d="M330 750V369H164V720L261 610L40 584V722L197 750H330ZM34 434H430V299H34V434ZM713 750H894L484 0H303L713 750ZM1107 451V0H942V368L1000 374L812 136L792 185H1166V60H664V180L885 451H1107Z" />
<glyph unicode="&#xbd;" horiz-adv-x="1205" d="M329 750V369H163V720L260 610L39 584V722L196 750H329ZM33 434H429V299H33V434ZM712 750H893L483 0H302L712 750ZM701 277Q705 326 735 367T823 435T962 461Q1025 461 1073 443T1148 390T1176 310Q1176 272 1159
244T1110 193T1033 152L916 104L847 135H1174V0H706V105L895 205Q932 225 953 237T984 260T993 283Q993 299 980 307T945 316Q914 316 899 305T879 277H701Z" />
<glyph unicode="&#xbe;" horiz-adv-x="1295" d="M42 580Q47 659 115 709T316 760Q433 760 495 723T557 626Q557 571 507 544T356 519V537Q439 539 485 527T549 492T567 436Q567 374 507 332T311 289Q223 289 160 312T64 376T29 472H205Q209 444 234 433T297 422Q339
422 355 428T371 447Q371 460 360 464T316 468H255V574H316Q335 574 345 577T360 587T365 600Q365 611 351 618T302 626Q258 626 239 613T218 580H42ZM812 750H993L583 0H402L812 750ZM1215 451V0H1050V368L1108 374L920 136L900 185H1274V60H772V180L993 451H1215Z"
/>
<glyph unicode="&#xbf;" horiz-adv-x="735" d="M497 293Q497 248 471 211T380 147L302 115Q281 107 272 98T262 74Q262 49 286 35T362 20Q415 20 444 41T480 100H722Q714 -29 619 -101T361 -173Q200 -173 110 -111T19 64Q19 121 49 163T143 233L231 270Q251 278
260 289T269 318V324H492Q495 315 496 307T497 293ZM383 607Q444 607 481 573T518 482Q518 426 481 392T383 357Q322 357 285 391T248 482Q248 538 285 572T383 607Z" />
<glyph unicode="&#xc0;" horiz-adv-x="996" d="M238 126V331H749V126H238ZM670 750L999 0H724L465 636H531L272 0H-3L326 750H670ZM487 982L635 802H383L203 982H487Z" />
<glyph unicode="&#xc1;" horiz-adv-x="996" d="M238 126V331H749V126H238ZM670 750L999 0H724L465 636H531L272 0H-3L326 750H670ZM500 982H784L604 802H352L500 982Z" />
<glyph unicode="&#xc2;" horiz-adv-x="996" d="M238 126V331H749V126H238ZM670 750L999 0H724L465 636H531L272 0H-3L326 750H670ZM367 982H629L784 802H584L438 906H558L412 802H212L367 982Z" />
<glyph unicode="&#xc3;" horiz-adv-x="996" d="M238 126V331H749V126H238ZM670 750L999 0H724L465 636H531L272 0H-3L326 750H670ZM202 806Q215 895 261 945T401 996Q429 996 454 990T502 975T545 960T582 953Q602 953 615 962T633 989H793Q780 901 734 850T594
799Q566 799 541 805T493 820T450 835T413 842Q393 842 380 833T362 806H202Z" />
<glyph unicode="&#xc4;" horiz-adv-x="996" d="M238 126V331H749V126H238ZM670 750L999 0H724L465 636H531L272 0H-3L326 750H670ZM338 792Q278 792 243 821T207 903Q207 953 242 981T338 1010Q398 1010 433 982T469 903Q469 850 434 821T338 792ZM658 792Q598
792 563 821T527 903Q527 953 562 981T658 1010Q718 1010 753 982T789 903Q789 850 754 821T658 792Z" />
<glyph unicode="&#xc5;" horiz-adv-x="996" d="M238 126V331H749V126H238ZM670 750L999 0H724L465 636H531L272 0H-3L326 750H670ZM498 782Q392 782 334 821T276 932Q276 1004 334 1043T498 1082Q605 1082 662 1043T720 932Q720 860 663 821T498 782ZM498 886Q544
886 564 898T584 932Q584 954 564 966T498 978Q452 978 432 966T412 932Q412 910 432 898T498 886Z" />
<glyph unicode="&#xc6;" horiz-adv-x="1266" d="M827 286L855 204H1220V0H667L440 677H522L275 0H0L299 750H1215V546H740L768 464H1183V286H827ZM221 126V331H702V126H221Z" />
<glyph unicode="&#xc7;" horiz-adv-x="949" d="M922 325Q910 222 852 145T697 25T477 -18Q343 -18 243 31T88 168T32 375Q32 493 87 581T243 719T477 768Q601 768 697 725T851 605T922 425H663Q654 464 630 491T568 533T477 548Q419 548 378 528T314 468T292 375Q292
321 314 283T377 223T477 202Q529 202 567 215T630 256T663 325H922ZM428 25H543L492 -68L429 -64Q457 -52 487 -45T551 -37Q628 -37 668 -64T708 -142Q708 -194 655 -228T497 -263Q406 -263 347 -232T272 -143H429Q434 -152 450 -159T497 -166Q528 -166 543 -158T559
-136Q559 -124 547 -116T507 -107Q494 -107 480 -108T453 -115H336L428 25Z" />
<glyph unicode="&#xc8;" horiz-adv-x="812" d="M729 464V286H164V464H729ZM341 375L295 96L197 204H766V0H40L95 375L40 750H761V546H197L295 654L341 375ZM398 982L546 802H294L114 982H398Z" />
<glyph unicode="&#xc9;" horiz-adv-x="812" d="M729 464V286H164V464H729ZM341 375L295 96L197 204H766V0H40L95 375L40 750H761V546H197L295 654L341 375ZM411 982H695L515 802H263L411 982Z" />
<glyph unicode="&#xca;" horiz-adv-x="812" d="M729 464V286H164V464H729ZM341 375L295 96L197 204H766V0H40L95 375L40 750H761V546H197L295 654L341 375ZM278 982H540L695 802H495L349 906H469L323 802H123L278 982Z" />
<glyph unicode="&#xcb;" horiz-adv-x="812" d="M729 464V286H164V464H729ZM341 375L295 96L197 204H766V0H40L95 375L40 750H761V546H197L295 654L341 375ZM249 792Q189 792 154 821T118 903Q118 953 153 981T249 1010Q309 1010 344 982T380 903Q380 850 345 821T249
792ZM569 792Q509 792 474 821T438 903Q438 953 473 981T569 1010Q629 1010 664 982T700 903Q700 850 665 821T569 792Z" />
<glyph unicode="&#xcc;" horiz-adv-x="378" d="M60 750H318V0H60V750ZM178 982L326 802H74L-106 982H178Z" />
<glyph unicode="&#xcd;" horiz-adv-x="378" d="M60 750H318V0H60V750ZM191 982H475L295 802H43L191 982Z" />
<glyph unicode="&#xce;" horiz-adv-x="378" d="M61 982H317L425 802H254L158 905H220L124 802H-47L61 982ZM60 750H318V0H60V750Z" />
<glyph unicode="&#xcf;" horiz-adv-x="378" d="M69 792Q19 792 -8 820T-36 901Q-36 954 -9 982T69 1010Q119 1010 146 982T174 901Q174 849 147 821T69 792ZM309 792Q259 792 232 820T204 901Q204 954 231 982T309 1010Q359 1010 386 982T414 901Q414 849 387
821T309 792ZM60 750H318V0H60V750Z" />
<glyph unicode="&#xd0;" horiz-adv-x="966" d="M28 457H481V295H28V457ZM478 750Q615 750 717 704T877 573T934 375Q934 262 877 178T718 47T478 0H80V750H478ZM336 115L220 230H498Q553 230 592 247T653 297T674 375Q674 421 653 453T593 502T498 520H220L336 635V115Z" />
<glyph unicode="&#xd1;" horiz-adv-x="995" d="M755 188L685 171V750H935V0H612L240 578L310 595V0H60V750H393L755 188ZM216 806Q229 895 275 945T415 996Q443 996 468 990T516 975T559 960T596 953Q616 953 629 962T647 989H807Q794 901 748 850T608 799Q580
799 555 805T507 820T464 835T427 842Q407 842 394 833T376 806H216Z" />
<glyph unicode="&#xd2;" horiz-adv-x="976" d="M488 -18Q351 -18 249 31T89 168T32 375Q32 493 89 581T248 719T488 768Q625 768 727 719T887 582T944 375Q944 257 887 169T728 31T488 -18ZM488 212Q549 212 593 231T660 287T684 375Q684 426 661 462T593 518T488
538Q427 538 383 519T316 463T292 375Q292 324 315 288T383 232T488 212ZM477 982L625 802H373L193 982H477Z" />
<glyph unicode="&#xd3;" horiz-adv-x="976" d="M488 -18Q351 -18 249 31T89 168T32 375Q32 493 89 581T248 719T488 768Q625 768 727 719T887 582T944 375Q944 257 887 169T728 31T488 -18ZM488 212Q549 212 593 231T660 287T684 375Q684 426 661 462T593 518T488
538Q427 538 383 519T316 463T292 375Q292 324 315 288T383 232T488 212ZM490 982H774L594 802H342L490 982Z" />
<glyph unicode="&#xd4;" horiz-adv-x="976" d="M488 -18Q351 -18 249 31T89 168T32 375Q32 493 89 581T248 719T488 768Q625 768 727 719T887 582T944 375Q944 257 887 169T728 31T488 -18ZM488 212Q549 212 593 231T660 287T684 375Q684 426 661 462T593 518T488
538Q427 538 383 519T316 463T292 375Q292 324 315 288T383 232T488 212ZM357 982H619L774 802H574L428 906H548L402 802H202L357 982Z" />
<glyph unicode="&#xd5;" horiz-adv-x="976" d="M488 -18Q351 -18 249 31T89 168T32 375Q32 493 89 581T248 719T488 768Q625 768 727 719T887 582T944 375Q944 257 887 169T728 31T488 -18ZM488 212Q549 212 593 231T660 287T684 375Q684 426 661 462T593 518T488
538Q427 538 383 519T316 463T292 375Q292 324 315 288T383 232T488 212ZM192 806Q205 895 251 945T391 996Q419 996 444 990T492 975T535 960T572 953Q592 953 605 962T623 989H783Q770 901 724 850T584 799Q556 799 531 805T483 820T440 835T403 842Q383 842
370 833T352 806H192Z" />
<glyph unicode="&#xd6;" horiz-adv-x="976" d="M488 -18Q351 -18 249 31T89 168T32 375Q32 493 89 581T248 719T488 768Q625 768 727 719T887 582T944 375Q944 257 887 169T728 31T488 -18ZM488 212Q549 212 593 231T660 287T684 375Q684 426 661 462T593 518T488
538Q427 538 383 519T316 463T292 375Q292 324 315 288T383 232T488 212ZM328 792Q268 792 233 821T197 903Q197 953 232 981T328 1010Q388 1010 423 982T459 903Q459 850 424 821T328 792ZM648 792Q588 792 553 821T517 903Q517 953 552 981T648 1010Q708 1010
743 982T779 903Q779 850 744 821T648 792Z" />
<glyph unicode="&#xd7;" horiz-adv-x="620" d="M49 213L445 609L572 481L176 85L49 213ZM49 481L176 609L572 213L445 85L49 481Z" />
<glyph unicode="&#xd8;" horiz-adv-x="976" d="M703 770H924L273 -20H52L703 770ZM488 -18Q351 -18 249 31T89 168T32 375Q32 493 89 581T248 719T488 768Q591 768 674 740T818 660T911 536T944 375Q944 257 887 169T728 31T488 -18ZM488 194Q552 194 598 215T669
278T694 375Q694 432 669 472T598 534T488 556Q424 556 378 535T307 473T282 375Q282 319 307 278T378 216T488 194Z" />
<glyph unicode="&#xd9;" horiz-adv-x="889" d="M308 344Q308 303 322 274T367 228T444 212Q492 212 522 227T566 273T580 344V750H838V330Q838 225 789 147T652 26T444 -18Q326 -18 238 25T100 147T50 330V750H308V344ZM433 982L581 802H329L149 982H433Z" />
<glyph unicode="&#xda;" horiz-adv-x="889" d="M308 344Q308 303 322 274T367 228T444 212Q492 212 522 227T566 273T580 344V750H838V330Q838 225 789 147T652 26T444 -18Q326 -18 238 25T100 147T50 330V750H308V344ZM446 982H730L550 802H298L446 982Z" />
<glyph unicode="&#xdb;" horiz-adv-x="889" d="M308 344Q308 303 322 274T367 228T444 212Q492 212 522 227T566 273T580 344V750H838V330Q838 225 789 147T652 26T444 -18Q326 -18 238 25T100 147T50 330V750H308V344ZM313 982H575L730 802H530L384 906H504L358
802H158L313 982Z" />
<glyph unicode="&#xdc;" horiz-adv-x="889" d="M308 344Q308 303 322 274T367 228T444 212Q492 212 522 227T566 273T580 344V750H838V330Q838 225 789 147T652 26T444 -18Q326 -18 238 25T100 147T50 330V750H308V344ZM284 792Q224 792 189 821T153 903Q153 953
188 981T284 1010Q344 1010 379 982T415 903Q415 850 380 821T284 792ZM604 792Q544 792 509 821T473 903Q473 953 508 981T604 1010Q664 1010 699 982T735 903Q735 850 700 821T604 792Z" />
<glyph unicode="&#xdd;" horiz-adv-x="957" d="M350 0V370H608V0H350ZM0 750H283L532 429H425L673 750H956L562 244L395 241L0 750ZM480 982H764L584 802H332L480 982Z" />
<glyph unicode="&#xde;" horiz-adv-x="854" d="M60 750H318V0H60V750ZM497 106H228V303H480Q518 303 539 322T560 379Q560 416 539 435T480 455H229V652H497Q599 652 671 619T782 524T820 379Q820 296 782 235T672 140T497 106Z" />
<glyph unicode="&#xdf;" horiz-adv-x="939" d="M47 0V450Q47 552 97 628T241 746T462 788Q567 788 646 764T768 696T812 592Q812 521 749 472T577 408L602 425Q755 419 836 364T917 219Q917 146 877 93T762 11T587 -18Q514 -18 459 -9T340 19V206Q409 181 454
171T545 161Q604 161 632 179T661 231Q661 255 647 270T605 294T536 302H441V467H480Q521 467 543 483T566 527Q566 563 535 582T446 602Q377 602 339 569T301 474V0H47Z" />
<glyph unicode="&#xe0;" horiz-adv-x="852" d="M555 0L526 203L555 287L526 370L555 575H819L779 288L819 0H555ZM608 287Q598 195 559 127T456 20T310 -18Q226 -18 163 20T64 127T28 287Q28 379 63 448T162 555T310 593Q392 593 455 556T559 450T608 287ZM284
287Q284 254 297 229T335 188T392 173Q425 173 456 188T510 228T543 287Q534 320 511 346T456 387T392 402Q360 402 336 387T298 346T284 287ZM418 827L546 627H314L174 827H418Z" />
<glyph unicode="&#xe1;" horiz-adv-x="852" d="M555 0L526 203L555 287L526 370L555 575H819L779 288L819 0H555ZM608 287Q598 195 559 127T456 20T310 -18Q226 -18 163 20T64 127T28 287Q28 379 63 448T162 555T310 593Q392 593 455 556T559 450T608 287ZM284
287Q284 254 297 229T335 188T392 173Q425 173 456 188T510 228T543 287Q534 320 511 346T456 387T392 402Q360 402 336 387T298 346T284 287ZM420 827H664L524 627H292L420 827Z" />
<glyph unicode="&#xe2;" horiz-adv-x="852" d="M555 0L526 203L555 287L526 370L555 575H819L779 288L819 0H555ZM608 287Q598 195 559 127T456 20T310 -18Q226 -18 163 20T64 127T28 287Q28 379 63 448T162 555T310 593Q392 593 455 556T559 450T608 287ZM284
287Q284 254 297 229T335 188T392 173Q425 173 456 188T510 228T543 287Q534 320 511 346T456 387T392 402Q360 402 336 387T298 346T284 287ZM301 827H557L700 627H505L369 771H489L353 627H158L301 827Z" />
<glyph unicode="&#xe3;" horiz-adv-x="852" d="M555 0L526 203L555 287L526 370L555 575H819L779 288L819 0H555ZM608 287Q598 195 559 127T456 20T310 -18Q226 -18 163 20T64 127T28 287Q28 379 63 448T162 555T310 593Q392 593 455 556T559 450T608 287ZM284
287Q284 254 297 229T335 188T392 173Q425 173 456 188T510 228T543 287Q534 320 511 346T456 387T392 402Q360 402 336 387T298 346T284 287ZM163 627Q168 722 206 777T322 832Q350 832 376 825T424 809T467 792T503 784Q523 784 536 796T554 830H694Q690 735
652 680T535 625Q507 625 481 632T433 649T390 666T354 673Q334 673 321 661T303 627H163Z" />
<glyph unicode="&#xe4;" horiz-adv-x="852" d="M555 0L526 203L555 287L526 370L555 575H819L779 288L819 0H555ZM608 287Q598 195 559 127T456 20T310 -18Q226 -18 163 20T64 127T28 287Q28 379 63 448T162 555T310 593Q392 593 455 556T559 450T608 287ZM284
287Q284 254 297 229T335 188T392 173Q425 173 456 188T510 228T543 287Q534 320 511 346T456 387T392 402Q360 402 336 387T298 346T284 287ZM272 617Q212 617 177 646T141 728Q141 778 176 806T272 835Q332 835 367 807T403 728Q403 675 368 646T272 617ZM586
617Q526 617 491 646T455 728Q455 778 490 806T586 835Q646 835 681 807T717 728Q717 675 682 646T586 617Z" />
<glyph unicode="&#xe5;" horiz-adv-x="852" d="M555 0L526 203L555 287L526 370L555 575H819L779 288L819 0H555ZM608 287Q598 195 559 127T456 20T310 -18Q226 -18 163 20T64 127T28 287Q28 379 63 448T162 555T310 593Q392 593 455 556T559 450T608 287ZM284
287Q284 254 297 229T335 188T392 173Q425 173 456 188T510 228T543 287Q534 320 511 346T456 387T392 402Q360 402 336 387T298 346T284 287ZM429 617Q330 617 275 657T219 768Q219 838 274 877T429 917Q528 917 583 878T639 768Q639 697 584 657T429 617ZM429
713Q464 713 483 727T502 767Q502 793 483 807T429 821Q395 821 376 807T356 767Q356 742 375 728T429 713Z" />
<glyph unicode="&#xe6;" horiz-adv-x="1270" d="M975 -18Q863 -18 783 21T660 130T617 287Q617 381 655 449T764 555T930 593Q1032 593 1103 550T1209 427T1240 234H763V351H1090L1035 313Q1031 351 1016 377T976 417T917 431Q882 431 856 416T815 374T801 311Q801
266 823 233T892 182T1012 164Q1072 164 1127 174T1224 203V59Q1189 36 1153 19T1075 -8T975 -18ZM541 0L521 203L550 287L521 370L541 575H724L744 294L724 0H541ZM608 287Q598 195 559 127T456 20T310 -18Q226 -18 163 20T64 127T28 287Q28 379 63 448T162 555T310
593Q392 593 455 556T559 450T608 287ZM284 287Q284 254 297 229T335 188T392 173Q425 173 456 188T510 228T543 287Q534 320 511 346T456 387T392 402Q360 402 336 387T298 346T284 287Z" />
<glyph unicode="&#xe7;" horiz-adv-x="787" d="M766 253Q759 172 709 111T579 16T397 -18Q287 -18 203 20T72 128T25 287Q25 378 72 446T203 554T397 593Q498 593 578 559T709 465T766 322H515Q506 365 475 386T397 408Q362 408 336 395T295 354T281 287Q281 247
295 221T335 181T397 167Q443 167 474 190T515 253H766ZM352 22H468L408 -69L351 -65Q376 -54 405 -47T469 -40Q540 -40 577 -66T615 -140Q615 -190 566 -223T418 -257Q333 -257 278 -227T206 -142H346Q352 -152 369 -159T418 -167Q450 -167 466 -158T482 -135Q482
-122 470 -113T428 -104Q416 -104 404 -106T381 -113H264L352 22Z" />
<glyph unicode="&#xe8;" horiz-adv-x="750" d="M399 -18Q292 -18 208 20T74 128T25 290Q25 381 72 449T202 555T386 593Q493 593 568 548T683 419T723 221H233V360H575L507 313Q503 348 489 372T451 408T396 421Q359 421 334 407T295 367T281 311Q281 263 302
231T368 181T479 164Q541 164 600 178T709 218V64Q645 24 570 3T399 -18ZM375 827L503 627H271L131 827H375Z" />
<glyph unicode="&#xe9;" horiz-adv-x="750" d="M399 -18Q292 -18 208 20T74 128T25 290Q25 381 72 449T202 555T386 593Q493 593 568 548T683 419T723 221H233V360H575L507 313Q503 348 489 372T451 408T396 421Q359 421 334 407T295 367T281 311Q281 263 302
231T368 181T479 164Q541 164 600 178T709 218V64Q645 24 570 3T399 -18ZM377 827H621L481 627H249L377 827Z" />
<glyph unicode="&#xea;" horiz-adv-x="750" d="M399 -18Q292 -18 208 20T74 128T25 290Q25 381 72 449T202 555T386 593Q493 593 568 548T683 419T723 221H233V360H575L507 313Q503 348 489 372T451 408T396 421Q359 421 334 407T295 367T281 311Q281 263 302
231T368 181T479 164Q541 164 600 178T709 218V64Q645 24 570 3T399 -18ZM258 827H514L657 627H462L326 771H446L310 627H115L258 827Z" />
<glyph unicode="&#xeb;" horiz-adv-x="750" d="M399 -18Q292 -18 208 20T74 128T25 290Q25 381 72 449T202 555T386 593Q493 593 568 548T683 419T723 221H233V360H575L507 313Q503 348 489 372T451 408T396 421Q359 421 334 407T295 367T281 311Q281 263 302
231T368 181T479 164Q541 164 600 178T709 218V64Q645 24 570 3T399 -18ZM229 617Q169 617 134 646T98 728Q98 778 133 806T229 835Q289 835 324 807T360 728Q360 675 325 646T229 617ZM543 617Q483 617 448 646T412 728Q412 778 447 806T543 835Q603 835 638 807T674
728Q674 675 639 646T543 617Z" />
<glyph unicode="&#xec;" horiz-adv-x="350" d="M48 587L175 561L302 587V0H48V587ZM164 827L292 627H60L-80 827H164Z" />
<glyph unicode="&#xed;" horiz-adv-x="350" d="M48 587L175 561L302 587V0H48V587ZM166 827H410L270 627H38L166 827Z" />
<glyph unicode="&#xee;" horiz-adv-x="350" d="M47 827H303L391 627H230L144 760H206L120 627H-41L47 827ZM48 587L175 561L302 587V0H48V587Z" />
<glyph unicode="&#xef;" horiz-adv-x="350" d="M65 617Q17 617 -9 647T-36 733Q-36 789 -10 819T65 849Q113 849 139 819T166 733Q166 678 140 648T65 617ZM285 617Q237 617 211 647T184 733Q184 789 210 819T285 849Q333 849 359 819T386 733Q386 678 360 648T285
617ZM48 587L175 561L302 587V0H48V587Z" />
<glyph unicode="&#xf0;" horiz-adv-x="804" d="M404 -18Q290 -18 205 17T72 115T24 262Q24 340 66 398T185 489T359 522Q412 522 458 513T545 480H528Q498 529 455 576T358 668T241 750L486 788Q591 708 654 630T746 476T775 321Q775 215 729 139T600 23T404 -18ZM404
167Q444 167 471 177T513 208T528 257Q528 286 514 306T472 336T404 347Q365 347 337 337T295 306T280 257Q280 229 294 209T337 178T404 167ZM249 545V660L721 750V635L249 545Z" />
<glyph unicode="&#xf1;" horiz-adv-x="820" d="M21 575H275L315 330V0H61V369L21 575ZM514 593Q598 593 657 560T747 466T779 324V0H525V288Q525 336 499 362T424 388Q390 388 366 375T328 336T315 274L240 312Q254 406 294 468T391 562T514 593ZM154 627Q159
722 197 777T313 832Q341 832 367 825T415 809T458 792T494 784Q514 784 527 796T545 830H685Q681 735 643 680T526 625Q498 625 472 632T424 649T381 666T345 673Q325 673 312 661T294 627H154Z" />
<glyph unicode="&#xf2;" horiz-adv-x="810" d="M405 -18Q291 -18 206 20T73 127T25 287Q25 379 72 448T205 555T405 593Q519 593 604 555T737 448T785 287Q785 196 738 127T605 20T405 -18ZM405 167Q445 167 472 181T514 222T529 287Q529 326 515 353T473 394T405
408Q366 408 338 394T296 353T281 287Q281 249 295 222T338 181T405 167ZM394 827L522 627H290L150 827H394Z" />
<glyph unicode="&#xf3;" horiz-adv-x="810" d="M405 -18Q291 -18 206 20T73 127T25 287Q25 379 72 448T205 555T405 593Q519 593 604 555T737 448T785 287Q785 196 738 127T605 20T405 -18ZM405 167Q445 167 472 181T514 222T529 287Q529 326 515 353T473 394T405
408Q366 408 338 394T296 353T281 288Q281 249 295 222T338 181T405 167ZM396 827H640L500 627H268L396 827Z" />
<glyph unicode="&#xf4;" horiz-adv-x="810" d="M405 -18Q291 -18 206 20T73 127T25 287Q25 379 72 448T205 555T405 593Q519 593 604 555T737 448T785 287Q785 196 738 127T605 20T405 -18ZM405 167Q445 167 472 181T514 222T529 287Q529 326 515 353T473 394T405
408Q366 408 338 394T296 353T281 288Q281 249 295 222T338 181T405 167ZM277 827H533L676 627H481L345 771H465L329 627H134L277 827Z" />
<glyph unicode="&#xf5;" horiz-adv-x="810" d="M405 -18Q291 -18 206 20T73 127T25 287Q25 379 72 448T205 555T405 593Q519 593 604 555T737 448T785 287Q785 196 738 127T605 20T405 -18ZM405 167Q445 167 472 181T514 222T529 287Q529 326 515 353T473 394T405
408Q366 408 338 394T296 353T281 288Q281 249 295 222T338 181T405 167ZM139 627Q144 722 182 777T298 832Q326 832 352 825T400 809T443 792T479 784Q499 784 512 796T530 830H670Q666 735 628 680T511 625Q483 625 457 632T409 649T366 666T330 673Q310 673
297 661T279 627H139Z" />
<glyph unicode="&#xf6;" horiz-adv-x="810" d="M405 -18Q291 -18 206 20T73 127T25 287Q25 379 72 448T205 555T405 593Q519 593 604 555T737 448T785 287Q785 196 738 127T605 20T405 -18ZM405 167Q445 167 472 181T514 222T529 287Q529 326 515 353T473 394T405
408Q366 408 338 394T296 353T281 288Q281 249 295 222T338 181T405 167ZM248 617Q188 617 153 646T117 728Q117 778 152 806T248 835Q308 835 343 807T379 728Q379 675 344 646T248 617ZM562 617Q502 617 467 646T431 728Q431 778 466 806T562 835Q622 835 657
807T693 728Q693 675 658 646T562 617Z" />
<glyph unicode="&#xf7;" horiz-adv-x="620" d="M300 475Q255 475 227 502T198 572Q198 615 226 642T300 669Q345 669 373 642T402 572Q402 529 374 502T300 475ZM300 39Q255 39 227 66T198 136Q198 179 226 206T300 233Q345 233 373 206T402 136Q402 93 374 66T300
39ZM30 444H590V264H30V444Z" />
<glyph unicode="&#xf8;" horiz-adv-x="810" d="M554 603H775L256 -28H35L554 603ZM405 -18Q291 -18 206 20T73 127T25 287Q25 379 72 448T205 555T405 593Q519 593 604 555T737 448T785 287Q785 196 738 127T605 20T405 -18ZM405 147Q449 147 480 163T527 211T543
287Q543 332 527 363T480 411T405 428Q361 428 330 412T283 364T267 287Q267 243 283 212T330 164T405 147Z" />
<glyph unicode="&#xf9;" horiz-adv-x="807" d="M299 -17Q218 -17 160 16T72 110T41 251V575H295V287Q295 240 319 214T389 188Q424 188 446 200T480 238T492 301L567 263Q554 170 515 108T420 14T299 -17ZM532 0L492 245V575H746V206L786 0H532ZM393 827L521 627H289L149
827H393Z" />
<glyph unicode="&#xfa;" horiz-adv-x="807" d="M299 -17Q218 -17 160 16T72 110T41 251V575H295V287Q295 240 319 214T389 188Q424 188 446 200T480 238T492 301L567 263Q554 170 515 108T420 14T299 -17ZM532 0L492 245V575H746V206L786 0H532ZM395 827H639L499
627H267L395 827Z" />
<glyph unicode="&#xfb;" horiz-adv-x="807" d="M299 -17Q218 -17 160 16T72 110T41 251V575H295V287Q295 240 319 214T389 188Q424 188 446 200T480 238T492 301L567 263Q554 170 515 108T420 14T299 -17ZM532 0L492 245V575H746V206L786 0H532ZM276 827H532L675
627H480L344 771H464L328 627H133L276 827Z" />
<glyph unicode="&#xfc;" horiz-adv-x="807" d="M299 -17Q218 -17 160 16T72 110T41 251V575H295V287Q295 240 319 214T389 188Q424 188 446 200T480 238T492 301L567 263Q554 170 515 108T420 14T299 -17ZM532 0L492 245V575H746V206L786 0H532ZM247 617Q187 617
152 646T116 728Q116 778 151 806T247 835Q307 835 342 807T378 728Q378 675 343 646T247 617ZM561 617Q501 617 466 646T430 728Q430 778 465 806T561 835Q621 835 656 807T692 728Q692 675 657 646T561 617Z" />
<glyph unicode="&#xfd;" horiz-adv-x="818" d="M270 -183Q198 -183 144 -166T35 -108V62Q88 28 133 14T232 -1Q274 -1 305 16T357 84L552 575H822L560 8Q527 -64 480 -106T378 -165T270 -183ZM238 77L7 575H287L480 77H238ZM409 827H653L513 627H281L409 827Z" />
<glyph unicode="&#xfe;" horiz-adv-x="834" d="M48 770H302V433L292 405V215L302 160V-165H48V770ZM227 287Q237 381 276 449T380 555T525 593Q610 593 673 555T771 448T807 287Q807 196 772 127T673 20T525 -18Q443 -18 380 20T277 126T227 287ZM551 287Q551
320 538 346T500 387T443 402Q410 402 379 387T325 346T292 287Q302 254 325 229T379 188T443 173Q475 173 499 188T537 228T551 287Z" />
<glyph unicode="&#xff;" horiz-adv-x="818" d="M270 -183Q198 -183 144 -166T35 -108V62Q88 28 133 14T232 -1Q274 -1 305 16T357 84L552 575H822L560 8Q527 -64 480 -106T378 -165T270 -183ZM238 77L7 575H287L480 77H238ZM261 617Q201 617 166 646T130 728Q130
778 165 806T261 835Q321 835 356 807T392 728Q392 675 357 646T261 617ZM575 617Q515 617 480 646T444 728Q444 778 479 806T575 835Q635 835 670 807T706 728Q706 675 671 646T575 617Z" />
<glyph unicode="&#x2013;" horiz-adv-x="670" d="M50 442H620V254H50V442Z" />
<glyph unicode="&#x2014;" horiz-adv-x="1230" d="M50 442H620V254H50V442ZM610 442H1180V254H610V442Z" />
<glyph unicode="&#x2018;" horiz-adv-x="320" d="M283 750L171 516L155 610Q194 610 224 592T273 544T291 476Q291 439 273 409T224 361T155 343Q118 343 87 361T38 409T20 478Q20 513 37 552T97 651L167 750H283Z" />
<glyph unicode="&#x2019;" horiz-adv-x="323" d="M44 355L156 589L172 495Q134 495 103 513T54 561T36 629Q36 666 54 696T103 744T172 762Q210 762 240 744T289 696T307 627Q307 593 290 553T230 454L160 355H44Z" />
<glyph unicode="&#x201a;" horiz-adv-x="326" d="M35 -145L147 89L163 -5Q125 -5 94 13T45 61T27 129Q27 166 45 196T94 244T163 262Q201 262 231 244T280 196T298 127Q298 93 281 53T221 -46L151 -145H35Z" />
<glyph unicode="&#x201c;" horiz-adv-x="624" d="M587 750L475 516L459 610Q498 610 528 592T577 544T595 476Q595 439 577 409T528 361T459 343Q422 343 391 361T342 409T324 478Q324 513 341 552T401 651L471 750H587ZM283 750L171 516L155 610Q194 610 224
592T273 544T291 476Q291 439 273 409T224 361T155 343Q118 343 87 361T38 409T20 478Q20 513 37 552T97 651L167 750H283Z" />
<glyph unicode="&#x201d;" horiz-adv-x="627" d="M44 355L156 589L172 495Q134 495 103 513T54 561T36 629Q36 666 54 696T103 744T172 762Q210 762 240 744T289 696T307 627Q307 593 290 553T230 454L160 355H44ZM348 355L460 589L476 495Q438 495 407 513T358
561T340 629Q340 666 358 696T407 744T476 762Q514 762 544 744T593 696T611 627Q611 593 594 553T534 454L464 355H348Z" />
<glyph unicode="&#x201e;" horiz-adv-x="630" d="M35 -145L147 89L163 -5Q125 -5 94 13T45 61T27 129Q27 166 45 196T94 244T163 262Q201 262 231 244T280 196T298 127Q298 93 281 53T221 -46L151 -145H35ZM339 -145L451 89L467 -5Q429 -5 398 13T349 61T331 129Q331
166 349 196T398 244T467 262Q505 262 535 244T584 196T602 127Q602 93 585 53T525 -46L455 -145H339Z" />
<glyph unicode="&#x2022;" horiz-adv-x="406" d="M203 217Q159 217 123 238T66 295T45 375Q45 420 66 455T123 512T203 533Q248 533 283 512T340 456T361 375Q361 331 340 295T284 238T203 217Z" />
<glyph unicode="&#x2039;" horiz-adv-x="470" d="M180 555H437L270 283V331L437 59H180L35 307L180 555Z" />
<glyph unicode="&#x203a;" horiz-adv-x="470" d="M290 555L435 307L290 59H33L200 331V283L33 555H290Z" />
</font>
</defs>
</svg>
